<svg width="65" height="61" viewBox="0 0 65 61" fill="none" xmlns="http://www.w3.org/2000/svg">
<rect x="0.641724" y="0.528076" width="64.1407" height="60.472" rx="30" fill="url(#paint0_linear_84_1216)"/>
<path d="M44.0647 18.0769H20.65C19.7592 18.0769 19.0762 18.8048 19.1801 19.6307L21.8527 42.336C21.9121 42.8959 22.3427 43.3718 22.9218 43.5258L31.949 45.9615C32.2163 46.0315 32.4984 46.0315 32.7657 45.9615L41.7929 43.5258C42.372 43.3718 42.7878 42.8959 42.862 42.336L45.5345 19.6307C45.6385 18.8048 44.9555 18.0769 44.0647 18.0769ZM38.675 25.776H27.3018L27.7917 29.9755H37.9326C38.2444 29.9755 38.5414 30.1014 38.7641 30.3254C38.9719 30.5494 39.0759 30.8434 39.0462 31.1373L38.3038 38.1365C38.2593 38.5704 37.9475 38.9204 37.5021 39.0464L32.3054 40.4462C32.2015 40.4742 32.0975 40.4882 31.9936 40.4882C31.8897 40.4882 31.7857 40.4742 31.6818 40.4462L26.4851 39.0464C26.01 38.9204 25.6834 38.5004 25.6834 38.0385V35.2388C25.6834 34.6649 26.1882 34.1889 26.7969 34.1889C27.4057 34.1889 27.9105 34.6649 27.9105 35.2388V37.2406L31.9936 38.3464L36.1509 37.2266L36.7002 32.0892H26.7969C26.2327 32.0892 25.7576 31.6832 25.6834 31.1513L24.941 24.8521C24.9113 24.5581 25.0004 24.2641 25.2231 24.0402C25.431 23.8162 25.7428 23.6902 26.0546 23.6902H38.675C39.2837 23.6902 39.7886 24.1662 39.7886 24.7401C39.7886 25.314 39.2837 25.776 38.675 25.776Z" fill="white"/>
<defs>
<linearGradient id="paint0_linear_84_1216" x1="37.145" y1="62.8035" x2="9.97636" y2="-0.677209" gradientUnits="userSpaceOnUse">
<stop stop-color="#DC6110"/>
<stop offset="1" stop-color="#FF802C"/>
</linearGradient>
</defs>
</svg>
