<svg width="65" height="61" viewBox="0 0 65 61" fill="none" xmlns="http://www.w3.org/2000/svg">
<rect x="0.285645" y="0.0561523" width="64.1407" height="60.472" rx="30" fill="url(#paint0_linear_84_1165)"/>
<path d="M35.6738 34.3041C36.5617 35.6864 37.717 36.7024 39.7602 36.7024C41.4767 36.7024 42.5731 35.8845 42.5731 34.7544C42.5731 33.4002 41.4466 32.9205 39.5573 32.1326L38.5217 31.709C35.5324 30.4949 33.5466 28.9738 33.5466 25.7583C33.5466 22.7964 35.9138 20.5415 39.6133 20.5415C42.2471 20.5415 44.1405 21.4154 45.505 23.7036L42.2793 25.6783C41.569 24.4641 40.8028 23.9858 39.6133 23.9858C38.3999 23.9858 37.6309 24.7197 37.6309 25.6783C37.6309 26.8631 38.4006 27.3427 40.178 28.0766L41.2136 28.4995C44.7332 29.9385 46.7205 31.4055 46.7205 34.7037C46.7205 38.2594 43.7907 40.2074 39.8561 40.2074C36.0089 40.2074 33.5235 38.4596 32.3073 36.1687L35.6738 34.3041ZM21.0402 34.6463C21.691 35.7471 22.283 36.6777 23.7062 36.6777C25.0672 36.6777 25.9258 36.17 25.9258 34.196V20.767H30.0682V34.2494C30.0682 38.3388 27.5534 40.2001 23.8826 40.2001C20.5658 40.2001 18.645 38.5636 17.6682 36.5926L21.0402 34.6463Z" fill="white"/>
<defs>
<linearGradient id="paint0_linear_84_1165" x1="36.7889" y1="62.3315" x2="9.62028" y2="-1.14913" gradientUnits="userSpaceOnUse">
<stop stop-color="#DAAD0C"/>
<stop offset="1" stop-color="#FFED00"/>
</linearGradient>
</defs>
</svg>
