<svg width="65" height="61" viewBox="0 0 65 61" fill="none" xmlns="http://www.w3.org/2000/svg">
<rect x="0.217529" y="0.528076" width="64.1407" height="60.472" rx="30" fill="url(#paint0_linear_85_86)"/>
<path d="M31.284 15.7773L30.7793 15.8197C26.0484 16.2217 21.6156 18.6294 18.807 22.328C17.2552 24.3592 16.2466 26.7137 15.8668 29.1913C15.7336 30.0519 15.7169 30.3063 15.7169 31.4764C15.7169 32.6464 15.7336 32.9009 15.8668 33.7647C16.7714 39.6621 21.2241 44.6171 27.2611 46.4531C28.3439 46.7813 29.4833 47.0043 30.7793 47.141C31.284 47.1928 33.4663 47.1928 33.971 47.141C36.2082 46.9054 38.1022 46.3855 39.973 45.4856C40.2595 45.3474 40.3145 45.3097 40.2761 45.2799C40.2495 45.261 39.0284 43.7172 37.5625 41.8498L34.8989 38.4574L31.5606 33.8008C30.4509 32.243 29.3308 30.6918 28.2006 29.1473C28.1873 29.1441 28.1739 31.2125 28.1673 33.7395C28.1573 38.1638 28.154 38.3412 28.0956 38.4465C28.0382 38.5686 27.9367 38.6677 27.8091 38.726C27.7042 38.7731 27.6142 38.7841 27.1228 38.7841H26.5581L26.4082 38.6946C26.3176 38.6376 26.2432 38.5604 26.1916 38.47L26.1216 38.3318L26.1283 32.1769L26.1383 26.0188L26.2383 25.8994C26.3054 25.8227 26.3874 25.7588 26.4798 25.7109C26.6131 25.6497 26.6664 25.6434 27.2294 25.6434C27.8941 25.6434 28.004 25.6685 28.1773 25.8476C28.2272 25.8947 30.033 28.4625 32.1952 31.5533L38.7686 40.9389L41.4056 44.7051L41.5388 44.6234C42.7216 43.8978 43.9709 42.8675 44.9621 41.7917C47.0612 39.5275 48.4228 36.7403 48.8834 33.7647C49.0167 32.9009 49.0334 32.6464 49.0334 31.4764C49.0334 30.3079 49.0167 30.0519 48.8834 29.1897C47.9789 23.2923 43.5262 18.3372 37.4892 16.5013C36.3602 16.1628 35.1976 15.9334 34.0193 15.8165C33.7078 15.7851 31.5539 15.7537 31.284 15.7773ZM38.1039 25.2759C38.2605 25.3497 38.3871 25.4911 38.4321 25.6371C38.4587 25.7172 38.4654 27.4244 38.4587 31.2707L38.4487 36.7911L37.4159 35.2991L36.3815 33.8071V29.7943C36.3815 27.1998 36.3948 25.7423 36.4148 25.6717C36.4381 25.5902 36.4786 25.514 36.5338 25.4477C36.5891 25.3813 36.6579 25.3261 36.7363 25.2853C36.8695 25.2209 36.9195 25.2146 37.4293 25.2146C37.9123 25.2146 37.9956 25.2209 38.1039 25.2759Z" fill="white"/>
<defs>
<linearGradient id="paint0_linear_85_86" x1="36.7208" y1="62.8035" x2="9.55217" y2="-0.677209" gradientUnits="userSpaceOnUse">
<stop offset="0.0729167" stop-color="#1B1F23"/>
<stop offset="0.973958" stop-color="#363C42"/>
</linearGradient>
</defs>
</svg>
