<svg width="65" height="61" viewBox="0 0 65 61" fill="none" xmlns="http://www.w3.org/2000/svg">
<rect x="0.573608" y="0.0561523" width="64.1407" height="60.472" rx="30" fill="url(#paint0_linear_85_83)"/>
<path d="M25.199 30.3743C25.199 20.5688 28.5697 12.6204 32.7314 12.6204C36.8931 12.6204 40.2638 20.5688 40.2638 30.3743C40.2638 40.1798 36.8931 48.1282 32.7314 48.1282C28.5697 48.1282 25.199 40.1798 25.199 30.3743Z" stroke="white" stroke-width="2.5" stroke-linecap="round" stroke-linejoin="round"/>
<path d="M28.918 24.3735C38.036 19.4699 47.1352 18.2484 49.2405 21.6447C51.3458 25.0411 45.6626 31.7698 36.5446 36.6717C27.4266 41.5735 18.3275 42.7968 16.2222 39.3987C14.1168 36.0023 19.8001 29.2771 28.918 24.3735Z" stroke="white" stroke-width="2.5" stroke-linecap="round" stroke-linejoin="round"/>
<path d="M36.5446 24.3735C45.6626 29.2736 51.3458 36.0023 49.2405 39.3987C47.1352 42.7968 38.036 41.5753 28.918 36.6717C19.8001 31.768 14.1168 25.0428 16.2222 21.6447C18.3256 18.2484 27.4266 19.4699 36.5446 24.3735Z" stroke="white" stroke-width="2.5" stroke-linecap="round" stroke-linejoin="round"/>
<path d="M35.5561 30.3743C35.5561 31.0806 35.2585 31.7579 34.7287 32.2574C34.199 32.7568 33.4805 33.0374 32.7314 33.0374C31.9822 33.0374 31.2638 32.7568 30.7341 32.2574C30.2043 31.7579 29.9067 31.0806 29.9067 30.3743C29.9067 29.668 30.2043 28.9906 30.7341 28.4912C31.2638 27.9918 31.9822 27.7112 32.7314 27.7112C33.4805 27.7112 34.199 27.9918 34.7287 28.4912C35.2585 28.9906 35.5561 29.668 35.5561 30.3743Z" stroke="white" stroke-width="2.5" stroke-linecap="round" stroke-linejoin="round"/>
<defs>
<linearGradient id="paint0_linear_85_83" x1="37.0769" y1="62.3315" x2="9.90824" y2="-1.14913" gradientUnits="userSpaceOnUse">
<stop offset="0.0729167" stop-color="#1376C6"/>
<stop offset="0.973958" stop-color="#2196F3"/>
</linearGradient>
</defs>
</svg>
