<svg width="66" height="61" viewBox="0 0 66 61" fill="none" xmlns="http://www.w3.org/2000/svg">
<rect x="0.929688" y="0.528076" width="64.1407" height="60.472" rx="30" fill="#E23C16"/>
<g clip-path="url(#clip0_85_94)">
<path d="M49.6861 28.9608L34.3423 14.4952C33.4593 13.6621 32.0261 13.6621 31.1416 14.4952L27.9557 17.4994L31.9974 21.3099C32.937 21.0109 34.0138 21.2115 34.7624 21.9172C35.5149 22.6275 35.7259 23.6514 35.401 24.5401L39.2963 28.2128C40.2386 27.9065 41.3263 28.1044 42.0785 28.8152C43.1309 29.8065 43.1309 31.4136 42.0785 32.4055C41.8285 32.6414 41.5315 32.8285 41.2047 32.9561C40.8779 33.0838 40.5277 33.1495 40.1739 33.1495C39.8202 33.1495 39.4699 33.0838 39.1431 32.9561C38.8163 32.8285 38.5194 32.6414 38.2693 32.4055C37.8937 32.051 37.6376 31.5997 37.5334 31.1083C37.4291 30.617 37.4813 30.1075 37.6833 29.644L34.0508 26.2194L34.0503 35.2328C34.3139 35.3551 34.5545 35.5172 34.7627 35.7126C35.8144 36.7039 35.8144 38.3105 34.7627 39.3039C33.7106 40.2953 32.0055 40.2953 30.9546 39.3039C29.9028 38.3107 29.9028 36.7042 30.9546 35.7126C31.2068 35.4749 31.5064 35.2867 31.8362 35.1588V26.0619C31.5061 25.9345 31.2063 25.7461 30.9546 25.5078C30.1578 24.7571 29.966 23.6548 30.3747 22.7319L26.3901 18.9752L15.8691 28.8939C15.4446 29.2942 15.2062 29.8371 15.2062 30.4031C15.2062 30.9691 15.4446 31.512 15.8691 31.9123L31.2132 46.378C32.0968 47.211 33.5294 47.211 34.4144 46.378L49.6864 31.9795C50.1108 31.5791 50.3492 31.0362 50.3491 30.4701C50.349 29.9041 50.1106 29.3612 49.6861 28.9608Z" fill="white"/>
</g>
<defs>
<clipPath id="clip0_85_94">
<rect width="35.6341" height="33.5959" fill="white" transform="translate(14.9604 13.6384)"/>
</clipPath>
</defs>
</svg>
