<svg width="50" height="52" viewBox="0 0 50 52" fill="none" xmlns="http://www.w3.org/2000/svg">
<rect x="6" y="0.910645" width="44" height="44.6122" rx="15" fill="#FF6200" fill-opacity="0.16"/>
<g clip-path="url(#clip0_119_115)">
<path fill-rule="evenodd" clip-rule="evenodd" d="M44 34.18C43.3597 32.8807 42.5855 31.6518 41.69 30.5134C41.0105 29.6711 40.1087 29.036 39.0867 28.68C38.5816 28.5592 38.052 28.5911 37.565 28.7717C36.85 28.9917 35.9884 29.4134 35.2184 29.6884C34.4484 29.9634 34.1 29.5784 33.8067 29.1934C33.22 28.3867 32.7617 27.36 32.2484 26.6817C31.4975 25.6455 30.494 24.8187 29.3334 24.28C28.956 24.1436 28.5531 24.0926 28.1536 24.1306C27.7542 24.1687 27.3682 24.2948 27.0234 24.5C26.3855 24.8446 25.9059 25.4228 25.685 26.1134C25.4124 27.0068 25.4643 27.9679 25.8317 28.8267C26.1348 29.5102 26.5163 30.1562 26.9684 30.7517C27.9359 31.875 28.8416 33.0501 29.6817 34.2717C29.92 34.6567 30.1767 35.0417 30.3967 35.445C29.6957 35.0995 28.9576 34.835 28.1967 34.6567C27.6917 34.5653 27.1712 34.6161 26.6934 34.8034C26.3726 34.9419 26.0938 35.162 25.8847 35.4419C25.6756 35.7217 25.5436 36.0515 25.5017 36.3984C25.4664 37.5063 25.7668 38.5991 26.3634 39.5334C26.9179 40.3503 27.6596 41.0228 28.5267 41.495C30.25 42.4484 32.3034 42.5034 34.3384 43.3284C34.4083 43.3775 34.4881 43.4108 34.5722 43.4259C34.6563 43.441 34.7427 43.4376 34.8254 43.4158C34.908 43.394 34.9849 43.3544 35.0507 43.2998C35.1164 43.2452 35.1694 43.1769 35.206 43.0996C35.2426 43.0224 35.2619 42.9381 35.2625 42.8526C35.2631 42.7671 35.245 42.6826 35.2095 42.6048C35.174 42.5271 35.122 42.458 35.057 42.4025C34.992 42.347 34.9157 42.3063 34.8334 42.2834C33.165 41.44 31.4417 41.2017 29.9384 40.45C29.0135 40.0419 28.2383 39.3564 27.72 38.4884C27.5195 38.1345 27.3771 37.7507 27.2984 37.3517C27.2817 37.132 27.2817 36.9114 27.2984 36.6917C27.2984 36.5817 27.2984 36.4534 27.4084 36.4167C27.8494 36.3515 28.2992 36.4492 28.6734 36.6917C29.2967 36.9667 29.9567 37.315 30.5067 37.535C30.9344 37.698 31.3874 37.7849 31.845 37.7917C32.1226 37.7921 32.3897 37.6857 32.5911 37.4946C32.7924 37.3035 32.9126 37.0423 32.9267 36.765C32.9254 36.3523 32.8824 35.9408 32.7984 35.5367C32.6984 35.1355 32.5507 34.7477 32.3584 34.3817C32.12 33.9234 31.845 33.4834 31.6067 33.0434C30.7306 31.7676 29.7818 30.5434 28.765 29.3767C28.4174 28.9225 28.1222 28.4305 27.885 27.91C27.7486 27.6055 27.6979 27.2696 27.7384 26.9384C27.7481 26.8301 27.783 26.7257 27.8403 26.6334C27.8976 26.5411 27.9757 26.4634 28.0684 26.4067C28.3984 26.205 28.7467 26.4067 29.0584 26.645C29.593 27.06 30.0734 27.5404 30.4884 28.075C31.02 28.735 31.5334 29.725 32.1384 30.5134C32.4561 30.9331 32.84 31.2984 33.275 31.595C33.5497 31.7557 33.8564 31.8537 34.1733 31.8822C34.4902 31.9108 34.8094 31.869 35.1084 31.76C35.9338 31.4638 36.7417 31.1211 37.5284 30.7334C37.95 30.55 38.2984 30.3117 38.555 30.385C39.3107 30.6035 39.9902 31.029 40.5167 31.6134C41.3829 32.6215 42.1445 33.7148 42.79 34.8767C42.8927 35.001 43.0363 35.0847 43.1951 35.1127C43.3539 35.1407 43.5175 35.1112 43.6565 35.0296C43.7955 34.9479 43.9009 34.8194 43.9538 34.6671C44.0067 34.5148 44.0036 34.3486 43.945 34.1984L44 34.18Z" fill="#FF6200"/>
<path fill-rule="evenodd" clip-rule="evenodd" d="M11.2567 23.1068C11.3234 23.0675 11.3814 23.0149 11.4272 22.9524C11.4729 22.8898 11.5053 22.8186 11.5225 22.743C11.5396 22.6675 11.5412 22.5892 11.527 22.5131C11.5128 22.4369 11.4832 22.3644 11.44 22.3001C11.3536 22.168 11.219 22.0748 11.0648 22.0405C10.9107 22.0063 10.7492 22.0336 10.615 22.1168L8.67167 23.4001C8.25001 23.7118 7.48001 24.0785 6.83834 24.5185C6.50216 24.7901 6.21665 25.1191 5.99501 25.4901C5.90343 25.6852 5.85596 25.898 5.85596 26.1135C5.85596 26.3289 5.90343 26.5418 5.99501 26.7368C6.27343 27.2856 6.65284 27.7769 7.11334 28.1851C7.50552 28.4925 7.92963 28.7568 8.37834 28.9735C9.27667 29.4135 10.2117 29.6885 11.1467 30.0918C11.2969 30.1503 11.4631 30.1535 11.6154 30.1006C11.7677 30.0477 11.8962 29.9423 11.9779 29.8033C12.0596 29.6642 12.089 29.5007 12.061 29.3419C12.033 29.1831 11.9493 29.0395 11.825 28.9368C11.1467 28.4418 10.395 28.0201 9.69834 27.5435C9.30146 27.2693 8.94373 26.9424 8.63501 26.5718C8.52506 26.5006 8.42086 26.4209 8.32334 26.3335L9.86334 24.6835L11.2567 23.1068Z" fill="#FF6200"/>
<path fill-rule="evenodd" clip-rule="evenodd" d="M16.28 20.1002C15.675 21.2735 14.9967 22.3918 14.4467 23.5835C14.2031 24.0902 13.9889 24.6105 13.805 25.1418C13.6034 25.6552 13.4384 26.2052 13.2734 26.7368C12.9067 28.0202 12.65 29.3218 12.3934 30.6052C12.3648 30.7673 12.3961 30.9344 12.4816 31.0751C12.5671 31.2159 12.7009 31.3207 12.858 31.3701C13.0151 31.4195 13.1848 31.41 13.3354 31.3435C13.4861 31.2769 13.6074 31.1579 13.6767 31.0085C14.19 29.7802 14.795 28.6068 15.3267 27.3418C15.675 26.5352 16.0234 25.7102 16.2984 24.8668C16.775 23.4185 17.05 21.9702 17.4167 20.5035C17.466 20.3549 17.4575 20.1931 17.3929 20.0505C17.3284 19.9078 17.2125 19.7946 17.0684 19.7335C16.9926 19.7045 16.9118 19.6909 16.8308 19.6937C16.7497 19.6965 16.67 19.7156 16.5965 19.7498C16.523 19.784 16.457 19.8326 16.4027 19.8928C16.3483 19.953 16.3066 20.0235 16.28 20.1002Z" fill="#FF6200"/>
<path fill-rule="evenodd" clip-rule="evenodd" d="M20.625 26.4434L19.7267 27.4884L18.1317 29.0834C17.9844 29.1839 17.8826 29.3383 17.8482 29.5133C17.8139 29.6883 17.8499 29.8697 17.9484 30.0184C17.995 30.0922 18.0558 30.156 18.1272 30.2062C18.1987 30.2563 18.2794 30.2918 18.3646 30.3106C18.4499 30.3293 18.538 30.331 18.6239 30.3155C18.7098 30.2999 18.7918 30.2675 18.865 30.2201L20.9367 28.8451L22.1467 27.9284C22.5548 27.5648 22.9235 27.1592 23.2467 26.7184C23.5446 26.3383 23.7459 25.8917 23.8334 25.4167C23.839 25.2452 23.8075 25.0745 23.741 24.9163C23.6746 24.7581 23.5748 24.6161 23.4484 24.5001C23.1518 24.2161 22.8261 23.9642 22.4767 23.7484C21.8844 23.3902 21.2723 23.0658 20.6434 22.7767C20.0464 22.4983 19.4344 22.2535 18.81 22.0434C18.6663 21.9805 18.5037 21.9759 18.3566 22.0307C18.2095 22.0854 18.0894 22.1951 18.0217 22.3367C17.9588 22.4805 17.9542 22.6431 18.009 22.7902C18.0637 22.9373 18.1735 23.0574 18.315 23.1251C18.8271 23.4463 19.3171 23.8016 19.7817 24.1884C20.2416 24.5694 20.6764 24.9797 21.0834 25.4167C21.3217 25.5267 21.6517 25.2701 20.625 26.4434Z" fill="#FF6200"/>
<path fill-rule="evenodd" clip-rule="evenodd" d="M23.7051 12.5468C24.2551 12.6568 25.0801 11.0618 25.0801 11.0251C25.159 10.8782 25.203 10.7151 25.2084 10.5484C25.2268 10.3778 25.2268 10.2057 25.2084 10.0351C25.0068 8.01842 24.4751 8.20175 24.2918 8.09175C24.1084 7.98175 23.6868 8.09175 23.1184 9.76008C23.045 9.89739 22.9954 10.0462 22.9718 10.2001C22.9531 10.3584 22.9531 10.5184 22.9718 10.6768C22.9718 10.6768 23.1734 12.4551 23.7051 12.5468Z" fill="#FF6200"/>
<path fill-rule="evenodd" clip-rule="evenodd" d="M31.7901 15.2051C31.9708 15.0912 32.137 14.9558 32.2851 14.8018C32.4345 14.6562 32.5695 14.4965 32.6884 14.3251C34.0268 12.6201 33.9168 12.4918 33.6784 12.1068C33.4401 11.7218 33.0001 11.6668 31.2584 12.7485C31.0677 12.8724 30.884 13.0071 30.7084 13.1518C30.5521 13.3143 30.4052 13.4857 30.2684 13.6651C29.0218 15.4985 29.3884 15.8285 29.5351 15.9751C29.6818 16.1218 29.9568 16.4518 31.7901 15.2051Z" fill="#FF6200"/>
<path fill-rule="evenodd" clip-rule="evenodd" d="M32.1567 19.8617C32.2667 20.5584 34.7967 20.5217 34.8517 20.5217C35.2178 20.4884 35.5799 20.4209 35.9334 20.3201C38.1334 19.7701 38.225 19.6051 38.225 19.1834C38.225 18.7617 37.8767 18.2851 35.7317 18.1751C35.4758 18.148 35.2177 18.148 34.9617 18.1751C34.7137 18.2126 34.4686 18.2677 34.2284 18.3401C32.01 19.2201 32.12 19.6234 32.1567 19.8617Z" fill="#FF6200"/>
<path d="M8.7084 41.5318C8.63135 41.5342 8.55551 41.5517 8.48524 41.5834C8.41497 41.6151 8.35163 41.6604 8.29885 41.7166C8.24606 41.7727 8.20487 41.8388 8.17763 41.9109C8.15038 41.983 8.13762 42.0598 8.14007 42.1368C8.14007 44.9785 8.14007 45.1985 8.9284 45.8035C9.46167 46.2371 10.0898 46.5387 10.7617 46.6835C10.7189 47.6259 10.9644 48.559 11.4656 49.3582C11.9668 50.1575 12.6997 50.7849 13.5667 51.1568C14.3523 51.5255 15.196 51.755 16.0601 51.8352C16.9078 51.9127 17.7624 51.8507 18.5901 51.6518C19.6219 51.4911 20.5826 51.027 21.3498 50.3185C22.1171 49.6101 22.6561 48.6893 22.8984 47.6735C22.9355 47.5836 22.9528 47.4868 22.9492 47.3896C22.9455 47.2924 22.9211 47.1972 22.8774 47.1103C22.8337 47.0234 22.7719 46.9469 22.6961 46.886C22.6203 46.8251 22.5323 46.7813 22.438 46.7574C22.3437 46.7335 22.2454 46.7301 22.1498 46.7475C22.0541 46.765 21.9633 46.8027 21.8835 46.8583C21.8037 46.9139 21.7368 46.986 21.6874 47.0697C21.6379 47.1534 21.607 47.2468 21.5967 47.3435C21.2988 47.996 20.8221 48.5507 20.2218 48.9433C19.6215 49.3359 18.9223 49.5504 18.2051 49.5618C17.5958 49.6285 16.981 49.6285 16.3717 49.5618C15.7452 49.4996 15.1292 49.3579 14.5384 49.1402C13.995 48.9978 13.4958 48.7221 13.086 48.3379C12.6762 47.9537 12.3688 47.4733 12.1917 46.9402L12.7051 47.0502C14.6208 47.4031 16.5718 47.5262 18.5167 47.4168C19.8584 47.3179 21.1762 47.0085 22.4217 46.5002L23.9251 45.5835C24.1073 45.4436 24.2734 45.2837 24.4201 45.1068C24.5826 44.9237 24.7298 44.7275 24.8601 44.5202C25.2224 44.0853 25.4209 43.5371 25.4209 42.971C25.4209 42.4049 25.2224 41.8567 24.8601 41.4218C24.616 41.1554 24.3236 40.9377 23.9984 40.7802C22.5989 40.3814 21.1436 40.2142 19.6901 40.2852L15.4734 40.6335C13.8967 40.8168 12.3201 41.1102 10.7251 41.3118L8.7084 41.5318ZM9.79007 43.3652L10.1934 42.5952L15.6934 42.3202H19.8367C20.7919 42.288 21.7471 42.3805 22.6784 42.5952C22.8826 42.6371 23.0723 42.732 23.2284 42.8702C23.18 43.0132 23.1121 43.1489 23.0267 43.2735L22.6234 43.7502L21.6151 44.3552C20.307 44.9411 18.9028 45.2829 17.4717 45.3635C15.9281 45.4946 14.3759 45.4885 12.8334 45.3452C11.8197 45.3724 10.816 45.1388 9.9184 44.6668C9.62507 44.4285 9.55173 44.0252 9.79007 43.4018V43.3652Z" fill="#FF6200"/>
<path d="M24.42 39.3501C24.75 37.5167 24.53 37.5167 24.2184 37.3334C23.9067 37.1501 23.485 37.4984 22.385 39.0751C22.3494 39.1582 22.3065 39.2379 22.2567 39.3134C22.2567 39.9001 24.09 40.5051 24.365 39.9001L24.42 39.3501Z" fill="#FF6200"/>
<path d="M28.5267 19.8435C28.0807 18.4578 27.3071 17.2001 26.2717 16.1768C25.2766 15.1937 24.1395 14.3656 22.8984 13.7202C20.9077 12.7124 18.7296 12.1286 16.5017 12.0055C14.2738 11.8824 12.0447 12.2228 9.95505 13.0052C7.80678 13.7284 5.84567 14.9191 4.21301 16.4915C2.58035 18.0639 1.3168 19.9789 0.513387 22.0985C-0.136787 24.188 -0.136787 26.4257 0.513387 28.5152C1.13132 30.5338 2.15438 32.4053 3.52005 34.0152C4.34505 34.9868 5.35339 35.8485 6.19672 36.7285C6.5557 37.0877 6.88666 37.4738 7.18672 37.8835C7.67614 38.53 8.08838 39.2314 8.41505 39.9735C8.41505 40.1202 8.52505 40.2852 8.59839 40.4502C8.74505 41.1102 9.93672 40.8718 9.95505 40.3585C9.97339 39.8452 9.75339 39.7535 9.62505 39.4602C9.288 38.6178 8.86404 37.8129 8.36005 37.0585C8.0521 36.564 7.709 36.0922 7.33339 35.6468C6.54505 34.7118 5.62839 33.8135 4.87672 32.8785C3.75881 31.4252 2.94795 29.7598 2.49339 27.9835C2.05218 26.2889 2.12881 24.5009 2.71339 22.8502C3.41335 21.0488 4.49771 19.4218 5.89088 18.0824C7.28406 16.7431 8.95254 15.7237 10.7801 15.0952C12.5952 14.3764 14.5356 14.0272 16.4874 14.0682C18.4393 14.1091 20.3633 14.5393 22.1467 15.3335C23.2649 15.8772 24.3016 16.5745 25.2267 17.4052C26.1205 18.1925 26.8175 19.1783 27.2617 20.2835C27.3202 20.4494 27.4408 20.5862 27.5981 20.6648C27.7555 20.7435 27.9372 20.758 28.1051 20.7052C28.1908 20.6785 28.2702 20.6345 28.3383 20.5761C28.4065 20.5176 28.462 20.4458 28.5015 20.3652C28.541 20.2845 28.5636 20.1966 28.5679 20.1069C28.5722 20.0172 28.5582 19.9276 28.5267 19.8435Z" fill="#FF6200"/>
</g>
<defs>
<clipPath id="clip0_119_115">
<rect width="44" height="44" fill="white" transform="translate(0 8)"/>
</clipPath>
</defs>
</svg>
