<svg width="50" height="52" viewBox="0 0 50 52" fill="none" xmlns="http://www.w3.org/2000/svg">
<g clip-path="url(#clip0_119_138)">
<path fill-rule="evenodd" clip-rule="evenodd" d="M11.5683 46.9766C11.3734 46.5835 11.1335 46.2144 10.8533 45.8766C10.2925 45.3111 9.63413 44.8516 8.91 44.5199C9.35204 44.3692 9.75634 44.1248 10.0953 43.8034C10.4342 43.4821 10.6997 43.0914 10.8738 42.658C11.0478 42.2246 11.1263 41.7587 11.1038 41.2922C11.0813 40.8257 10.9583 40.3696 10.7433 39.9549C10.3481 39.0314 9.67025 38.2571 8.80716 37.7432C7.94406 37.2293 6.94022 37.0023 5.94 37.0949C5.26251 37.2312 4.62422 37.5177 4.07214 37.9334C3.52006 38.349 3.06825 38.8832 2.75 39.4966C2.40535 40.1383 2.25965 40.8682 2.33148 41.5931C2.40332 42.318 2.68943 43.005 3.15333 43.5666C3.53258 43.9725 4.00431 44.2807 4.52833 44.4649C3.72625 44.8109 3.00274 45.3161 2.40167 45.9499C2.12154 46.2877 1.88159 46.6568 1.68667 47.0499C1.49391 47.4588 1.35229 47.8898 1.265 48.3333C1.0572 49.2781 0.964859 50.2446 0.989999 51.2116C0.982952 51.3985 1.04419 51.5816 1.16227 51.7267C1.28035 51.8718 1.44721 51.9689 1.63167 51.9999C1.72808 52.0128 1.82609 52.0063 1.91998 51.9809C2.01386 51.9554 2.10175 51.9116 2.17853 51.8519C2.25531 51.7922 2.31944 51.7178 2.36719 51.633C2.41494 51.5483 2.44536 51.4549 2.45667 51.3583C2.84013 50.3085 3.31879 49.2959 3.88667 48.3333L4.36333 47.3983C4.52833 47.0683 4.63833 46.7383 4.82167 46.4266C5.05773 46.0323 5.33422 45.6636 5.64667 45.3266C5.7341 45.2657 5.80389 45.1827 5.84896 45.0861C5.89403 44.9895 5.91279 44.8828 5.90333 44.7766C6.32509 44.8685 6.75504 44.9177 7.18667 44.9233C7.18667 44.9233 7.27833 44.9233 7.33333 44.8316C7.37085 45.0009 7.46858 45.1507 7.60833 45.2533C7.92078 45.5903 8.19727 45.959 8.43333 46.3533C8.61667 46.6649 8.72667 46.9949 8.89167 47.3249L9.36833 48.2599C9.9413 49.2327 10.4201 50.2579 10.7983 51.3216C10.8092 51.4195 10.8402 51.514 10.8894 51.5993C10.9385 51.6846 11.0048 51.7588 11.0839 51.8174C11.1631 51.8759 11.2535 51.9174 11.3495 51.9394C11.4455 51.9613 11.5449 51.9632 11.6417 51.9449C11.8383 51.9176 12.0162 51.8136 12.1364 51.6556C12.2566 51.4976 12.3094 51.2984 12.2833 51.1016C12.303 50.1338 12.2045 49.1672 11.99 48.2233C11.8998 47.7923 11.7583 47.3738 11.5683 46.9766ZM5.64667 43.2183C5.24796 43.055 4.90886 42.7735 4.675 42.4116C4.53233 42.1351 4.47367 41.8228 4.50625 41.5134C4.53882 41.2039 4.66121 40.9107 4.85833 40.6699C5.02292 40.3902 5.24552 40.1489 5.51115 39.9623C5.77678 39.7757 6.0793 39.6482 6.39833 39.5883C6.90226 39.503 7.42024 39.5795 7.87803 39.8068C8.33581 40.034 8.7099 40.4003 8.94667 40.8533C9.75333 42.3199 8.39667 44.3549 5.64667 43.2183Z" fill="#009387"/>
<path fill-rule="evenodd" clip-rule="evenodd" d="M26.675 46.9766C26.4801 46.5835 26.2402 46.2144 25.96 45.8766C25.3992 45.3111 24.7408 44.8516 24.0167 44.5199C24.4668 44.3791 24.8807 44.1419 25.2298 43.8248C25.5788 43.5077 25.8546 43.1184 26.0378 42.6838C26.221 42.2493 26.3073 41.7801 26.2907 41.3088C26.2742 40.8375 26.155 40.3755 25.9417 39.9549C25.5465 39.0314 24.8686 38.2571 24.0055 37.7432C23.1424 37.2293 22.1386 37.0023 21.1384 37.0949C20.4444 37.2184 19.7879 37.499 19.2191 37.9153C18.6503 38.3316 18.1842 38.8725 17.8567 39.4966C17.5219 40.1454 17.3885 40.8793 17.4734 41.6044C17.5583 42.3295 17.8578 43.0127 18.3334 43.5666C18.7126 43.9725 19.1843 44.2807 19.7084 44.4649C18.9063 44.8109 18.1828 45.3161 17.5817 45.9499C17.3016 46.2877 17.0616 46.6568 16.8667 47.0499C16.6795 47.4355 16.538 47.8416 16.445 48.2599C16.2372 49.2047 16.1449 50.1712 16.17 51.1383C16.1436 51.3372 16.1959 51.5386 16.3158 51.6995C16.4356 51.8605 16.6136 51.9682 16.8117 51.9999C16.9081 52.0128 17.0061 52.0063 17.1 51.9809C17.1939 51.9554 17.2818 51.9116 17.3586 51.8519C17.4353 51.7922 17.4995 51.7178 17.5472 51.633C17.595 51.5483 17.6254 51.4549 17.6367 51.3583C17.9966 50.311 18.4507 49.2986 18.9934 48.3333L19.47 47.3983C19.635 47.0683 19.745 46.7383 19.9284 46.4266C20.1644 46.0323 20.4409 45.6636 20.7534 45.3266C20.8408 45.2657 20.9106 45.1827 20.9557 45.0861C21.0007 44.9895 21.0195 44.8828 21.01 44.7766C21.4318 44.8685 21.8617 44.9177 22.2934 44.9233C22.2934 44.9233 22.385 44.9233 22.44 44.8316C22.4775 45.0009 22.5753 45.1507 22.715 45.2533C23.0275 45.5903 23.304 45.959 23.54 46.3533C23.7234 46.6649 23.8334 46.9949 23.9984 47.3249L24.475 48.2599C25.048 49.2327 25.5268 50.2579 25.905 51.3216C25.9159 51.4195 25.9469 51.514 25.9961 51.5993C26.0452 51.6846 26.1115 51.7588 26.1906 51.8174C26.2698 51.8759 26.3602 51.9174 26.4562 51.9394C26.5522 51.9613 26.6516 51.9632 26.7484 51.9449C26.945 51.9176 27.1229 51.8136 27.2431 51.6556C27.3633 51.4976 27.4161 51.2984 27.39 51.1016C27.4097 50.1338 27.3112 49.1672 27.0967 48.2233C27.0065 47.7923 26.865 47.3738 26.675 46.9766ZM20.7534 43.2183C20.3547 43.055 20.0156 42.7735 19.7817 42.4116C19.639 42.1351 19.5804 41.8228 19.6129 41.5134C19.6455 41.2039 19.7679 40.9107 19.965 40.6699C20.1296 40.3902 20.3522 40.1489 20.6178 39.9623C20.8835 39.7757 21.186 39.6482 21.505 39.5883C22.009 39.503 22.5269 39.5795 22.9847 39.8068C23.4425 40.034 23.8166 40.4003 24.0534 40.8533C24.86 42.3383 23.5034 44.3366 20.7534 43.2183Z" fill="#009387"/>
<path fill-rule="evenodd" clip-rule="evenodd" d="M41.7816 46.9766C41.5867 46.5835 41.3467 46.2144 41.0666 45.8766C40.5399 45.3203 39.9193 44.8611 39.2333 44.5199C39.6753 44.3692 40.0796 44.1248 40.4185 43.8034C40.7575 43.4821 41.023 43.0914 41.1971 42.658C41.3711 42.2246 41.4496 41.7587 41.4271 41.2922C41.4045 40.8257 41.2816 40.3696 41.0666 39.9549C40.6714 39.0314 39.9935 38.2571 39.1304 37.7432C38.2673 37.2293 37.2635 37.0023 36.2633 37.0949C35.5726 37.221 34.9197 37.5028 34.3543 37.9189C33.7888 38.3351 33.3256 38.8747 32.9999 39.4966C32.6553 40.1383 32.5096 40.8682 32.5814 41.5931C32.6533 42.318 32.9394 43.005 33.4033 43.5666C33.7878 43.9662 34.2579 44.2733 34.7783 44.4649C33.9706 44.8105 33.2411 45.3156 32.6333 45.9499C32.3531 46.2877 32.1132 46.6568 31.9183 47.0499C31.7311 47.4355 31.5895 47.8416 31.4966 48.2599C31.2703 49.2025 31.1595 50.169 31.1666 51.1383C31.1402 51.3372 31.1925 51.5386 31.3123 51.6995C31.4322 51.8605 31.6101 51.9682 31.8083 51.9999C31.9047 52.0128 32.0027 52.0063 32.0966 51.9809C32.1905 51.9554 32.2784 51.9116 32.3551 51.8519C32.4319 51.7922 32.4961 51.7178 32.5438 51.633C32.5916 51.5483 32.622 51.4549 32.6333 51.3583C33.0285 50.3072 33.5194 49.2946 34.0999 48.3333L34.5766 47.3983C34.7416 47.0683 34.8516 46.7383 35.0349 46.4266C35.271 46.0323 35.5475 45.6636 35.8599 45.3266C35.9474 45.2657 36.0172 45.1827 36.0622 45.0861C36.1073 44.9895 36.1261 44.8828 36.1166 44.7766C36.5444 44.8697 36.9805 44.9188 37.4183 44.9233C37.4183 44.9233 37.4183 44.9233 37.5466 44.8316C37.579 45.003 37.6778 45.1546 37.8216 45.2533C38.1341 45.5903 38.4105 45.959 38.6466 46.3533C38.8299 46.6649 38.9399 46.9949 39.1049 47.3249L39.5816 48.2599C40.1546 49.2327 40.6334 50.2579 41.0116 51.3216C41.0225 51.4195 41.0535 51.514 41.1027 51.5993C41.1518 51.6846 41.218 51.7588 41.2972 51.8174C41.3764 51.8759 41.4668 51.9174 41.5628 51.9394C41.6587 51.9613 41.7582 51.9632 41.8549 51.9449C42.0516 51.9176 42.2294 51.8136 42.3497 51.6556C42.4699 51.4976 42.5227 51.2984 42.4966 51.1016C42.5073 50.1201 42.3964 49.1409 42.1666 48.1866C42.0854 47.7698 41.9562 47.3637 41.7816 46.9766ZM35.8783 43.2183C35.4796 43.055 35.1405 42.7735 34.9066 42.4116C34.7639 42.1351 34.7053 41.8228 34.7379 41.5134C34.7704 41.2039 34.8928 40.9107 35.0899 40.6699C35.2545 40.3902 35.4771 40.1489 35.7428 39.9623C36.0084 39.7757 36.3109 39.6482 36.6299 39.5883C37.1339 39.503 37.6519 39.5795 38.1096 39.8068C38.5674 40.034 38.9415 40.4003 39.1783 40.8533C39.3137 41.0654 39.3982 41.3059 39.4252 41.556C39.4522 41.8062 39.421 42.0592 39.334 42.2953C39.247 42.5314 39.1066 42.7442 38.9238 42.917C38.7409 43.0899 38.5206 43.2181 38.2799 43.2916C37.7666 43.4933 38.2799 43.5666 37.4183 43.5666C36.8899 43.5318 36.3702 43.4143 35.8783 43.2183Z" fill="#009387"/>
<path fill-rule="evenodd" clip-rule="evenodd" d="M29.7916 20.3383C29.5777 19.8573 29.3002 19.4072 28.9666 19C28.1996 18.1429 27.2714 17.4452 26.2349 16.9467C26.7952 16.4584 27.2209 15.8346 27.4712 15.1348C27.7216 14.4351 27.7883 13.6829 27.6649 12.95C27.5818 11.7887 27.1323 10.6837 26.3811 9.79421C25.63 8.90468 24.6159 8.27646 23.4849 8C22.3599 7.9293 21.2364 8.16056 20.2307 8.66984C19.225 9.17912 18.3737 9.94793 17.7649 10.8967C17.4183 11.3667 17.1735 11.9039 17.0463 12.474C16.919 13.044 16.9121 13.6343 17.026 14.2072C17.1399 14.78 17.372 15.3228 17.7076 15.8008C18.0432 16.2789 18.4749 16.6816 18.9749 16.9833H19.1583C18.2253 17.621 17.3701 18.3655 16.6099 19.2017C16.0695 19.7927 15.6186 20.4598 15.2716 21.1817C14.911 21.8364 14.6877 22.5577 14.6152 23.3016C14.5427 24.0455 14.6226 24.7963 14.8499 25.5083C14.9014 25.6953 15.0248 25.8542 15.1931 25.9504C15.3615 26.0466 15.5611 26.0723 15.7483 26.0217C15.94 25.9701 16.1035 25.8447 16.2031 25.673C16.3027 25.5012 16.3303 25.297 16.2799 25.105C16.2641 24.6334 16.3715 24.1658 16.5916 23.7483C16.8297 23.2689 17.1056 22.8091 17.4166 22.3733C17.7099 21.915 18.0399 21.4567 18.3333 20.9617C19.0483 19.8617 19.6166 18.7433 20.1666 17.9C20.1666 17.9 20.1666 17.7533 20.2766 17.6617C20.8722 17.8628 21.4863 18.004 22.1099 18.0833C22.2798 18.1101 22.4534 18.0695 22.5938 17.9702C22.7342 17.8709 22.8303 17.7207 22.8616 17.5517C22.8775 17.4662 22.8763 17.3784 22.8582 17.2934C22.84 17.2083 22.8052 17.1277 22.7558 17.0562C22.7064 16.9846 22.6434 16.9235 22.5703 16.8764C22.4972 16.8293 22.4155 16.7971 22.3299 16.7817C21.8836 16.6829 21.4477 16.5417 21.0283 16.36C20.6405 16.1911 20.2816 15.9621 19.9649 15.6817C19.5559 15.3604 19.2642 14.9133 19.135 14.4096C19.0057 13.9058 19.0461 13.3735 19.2499 12.895C19.5275 12.3038 19.9579 11.7975 20.4966 11.4283C21.2165 10.7908 22.158 10.4616 23.1183 10.5117C23.7826 10.6343 24.3896 10.9682 24.8488 11.4638C25.308 11.9593 25.5949 12.5899 25.6666 13.2617C25.9416 14.6367 25.5566 16.1033 23.9433 16.2317C23.836 16.2148 23.7263 16.2213 23.6218 16.2508C23.5173 16.2804 23.4204 16.3322 23.3379 16.4028C23.2553 16.4733 23.189 16.561 23.1436 16.6596C23.0981 16.7582 23.0746 16.8656 23.0746 16.9742C23.0746 17.0828 23.0981 17.1901 23.1436 17.2887C23.189 17.3874 23.2553 17.475 23.3379 17.5456C23.4204 17.6161 23.5173 17.668 23.6218 17.6975C23.7263 17.727 23.836 17.7336 23.9433 17.7167C24.3252 17.7021 24.7026 17.6278 25.0616 17.4967C25.0663 17.5857 25.0899 17.6726 25.1311 17.7517C25.1722 17.8308 25.2298 17.9001 25.2999 17.955C25.9736 18.674 26.5359 19.4897 26.9683 20.375L27.5183 21.4383C28.2098 22.6742 28.7046 24.0102 28.9849 25.3983C29.0246 25.581 29.1294 25.7431 29.2798 25.8542C29.4302 25.9653 29.6158 26.0179 29.8021 26.0022C29.9884 25.9865 30.1627 25.9035 30.2923 25.7688C30.4219 25.6341 30.4981 25.4568 30.5066 25.27C30.5736 24.1096 30.4935 22.9453 30.2683 21.805C30.1702 21.2984 30.0101 20.8058 29.7916 20.3383Z" fill="#009387"/>
<path fill-rule="evenodd" clip-rule="evenodd" d="M27.0966 30.3849L23.43 32.6949L23.155 32.9149C23.2833 32.1266 23.4116 31.3199 23.485 30.5133C23.5123 30.1104 23.5123 29.7061 23.485 29.3033C23.5124 28.9004 23.5124 28.4961 23.485 28.0933C23.375 27.1399 23.155 26.2599 23.0633 25.2883C23.079 25.1934 23.0743 25.0964 23.0496 25.0035C23.0249 24.9106 22.9808 24.824 22.9201 24.7495C22.8595 24.6749 22.7836 24.6142 22.6977 24.5711C22.6118 24.5281 22.5177 24.5038 22.4216 24.4999C22.2495 24.4898 22.0802 24.5474 21.95 24.6605C21.8198 24.7735 21.739 24.9331 21.725 25.1049C21.419 26.0438 21.1921 27.0066 21.0466 27.9833C21.0193 28.3984 21.0193 28.8148 21.0466 29.2299C21.0496 29.641 21.0802 30.0513 21.1383 30.4583C21.1383 31.1549 21.34 31.8333 21.4683 32.5299C21.2483 32.3649 21.01 32.2183 20.7716 32.0716C19.7266 31.4299 18.6633 30.8799 17.6 30.2383C17.5326 30.1865 17.4556 30.1485 17.3735 30.1265C17.2914 30.1045 17.2058 30.0988 17.1215 30.1099C17.0373 30.121 16.956 30.1485 16.8824 30.191C16.8088 30.2335 16.7442 30.29 16.6925 30.3574C16.6407 30.4248 16.6027 30.5018 16.5807 30.5839C16.5587 30.666 16.553 30.7516 16.5641 30.8359C16.5752 30.9201 16.6027 31.0014 16.6452 31.075C16.6877 31.1486 16.7442 31.2132 16.8116 31.2649L20.4783 34.8399C20.8174 35.2098 21.1786 35.5588 21.56 35.8849C21.7572 36.046 21.9947 36.1499 22.2468 36.1855C22.4989 36.221 22.7559 36.1868 22.99 36.0866C23.292 35.9397 23.5701 35.7481 23.815 35.5183C24.2183 35.1516 24.5666 34.6566 24.8783 34.3449L27.995 31.5216C28.0746 31.4637 28.1418 31.3904 28.1926 31.3059C28.2433 31.2215 28.2765 31.1278 28.2902 31.0302C28.3038 30.9327 28.2977 30.8334 28.2722 30.7383C28.2467 30.6432 28.2023 30.5542 28.1416 30.4766C28.0138 30.3281 27.833 30.2354 27.6378 30.2183C27.4426 30.2012 27.2484 30.261 27.0966 30.3849Z" fill="#009387"/>
<path fill-rule="evenodd" clip-rule="evenodd" d="M12.6133 30.9167C11.8617 31.3017 11.1283 31.6867 10.4317 32.1084C9.91731 32.3814 9.42127 32.6876 8.94668 33.025H8.83668C9.02419 32.2482 9.25681 31.4831 9.53334 30.7334C9.75334 30.2384 9.97334 29.7434 10.2117 29.2667C10.4512 28.8132 10.7143 28.3726 11 27.9467C11.5781 26.8322 12.3838 25.8516 13.365 25.0684C13.5116 24.9771 13.6179 24.8333 13.6622 24.6664C13.7065 24.4995 13.6854 24.322 13.6033 24.17C13.5632 24.0923 13.5075 24.0236 13.4398 23.9682C13.3721 23.9127 13.2937 23.8717 13.2096 23.8477C13.1255 23.8236 13.0373 23.8171 12.9505 23.8284C12.8637 23.8397 12.7802 23.8686 12.705 23.9134C11.277 24.4739 10.0152 25.3888 9.03834 26.5717C8.61246 27.0789 8.25496 27.6398 7.97501 28.24C7.6968 28.8267 7.4817 29.4412 7.33334 30.0734C7.13543 30.8599 7.01871 31.6647 6.98501 32.475L3.31834 29.5417C3.25703 29.4802 3.18417 29.4313 3.10394 29.398C3.02372 29.3647 2.93771 29.3476 2.85084 29.3476C2.76398 29.3476 2.67797 29.3647 2.59774 29.398C2.51752 29.4313 2.44466 29.4802 2.38334 29.5417C2.26868 29.6668 2.20508 29.8303 2.20508 30C2.20508 30.1697 2.26868 30.3333 2.38334 30.4584L5.90334 34.7667L6.89334 35.72C6.78334 35.8484 7.29668 36.0867 7.44334 36.16C7.64529 36.2697 7.87396 36.3205 8.10334 36.3067C8.52651 36.2951 8.93851 36.1683 9.29501 35.94C9.744 35.5928 10.1612 35.2062 10.5417 34.785C10.8533 34.3964 11.1837 34.0232 11.5317 33.6667L13.365 32.145C13.5081 32.0268 13.6024 31.8598 13.6298 31.6763C13.6571 31.4927 13.6156 31.3055 13.5131 31.1507C13.4107 30.9959 13.2546 30.8845 13.075 30.8379C12.8953 30.7913 12.7048 30.8128 12.54 30.8984L12.6133 30.9167Z" fill="#009387"/>
<path fill-rule="evenodd" clip-rule="evenodd" d="M42.8083 29.505C42.7486 29.4441 42.6772 29.3956 42.5985 29.3625C42.5198 29.3295 42.4353 29.3124 42.35 29.3124C42.2646 29.3124 42.1801 29.3295 42.1014 29.3625C42.0227 29.3956 41.9514 29.4441 41.8916 29.505L38.225 32.4384C38.1822 31.6289 38.0656 30.825 37.8766 30.0367C37.7216 29.4041 37.5004 28.7896 37.2166 28.2034C36.9363 27.6075 36.5854 27.0473 36.1716 26.535C35.1873 25.3602 33.9277 24.4469 32.505 23.8767C32.4291 23.8334 32.3455 23.8054 32.2588 23.7944C32.1722 23.7834 32.0842 23.7895 32 23.8125C31.9157 23.8355 31.8368 23.8748 31.7677 23.9283C31.6987 23.9818 31.6408 24.0484 31.5975 24.1242C31.5541 24.2 31.5262 24.2837 31.5151 24.3703C31.5041 24.457 31.5103 24.5449 31.5333 24.6292C31.5562 24.7135 31.5956 24.7924 31.6491 24.8615C31.7026 24.9305 31.7691 24.9884 31.845 25.0317C32.8394 25.8112 33.6579 26.7921 34.2466 27.91C34.5033 28.3684 34.76 28.8267 34.9983 29.3034C35.2366 29.78 35.4566 30.275 35.6766 30.77C35.8966 31.265 36.135 32.2917 36.355 33.0617H36.2633C35.7683 32.7317 35.2916 32.42 34.7783 32.145C34.265 31.87 33.33 31.3384 32.5783 30.9534C32.4123 30.8488 32.212 30.8133 32.0202 30.8544C31.8284 30.8955 31.6602 31.01 31.5516 31.1734C31.4975 31.2548 31.4601 31.3463 31.4419 31.4425C31.4236 31.5386 31.4247 31.6374 31.4452 31.7331C31.4657 31.8287 31.5052 31.9193 31.5612 31.9995C31.6173 32.0797 31.6888 32.1479 31.7716 32.2L33.605 33.7217C33.99 34.0517 34.3566 34.4184 34.7233 34.785C35.0993 35.2106 35.517 35.5975 35.97 35.94C36.32 36.1677 36.7259 36.2945 37.1433 36.3067C37.3728 36.3215 37.6017 36.2706 37.8033 36.16C37.9683 36.16 38.4816 35.8484 38.3533 35.72L39.3616 34.7667L42.8633 30.4584C42.9267 30.3944 42.976 30.3178 43.0079 30.2336C43.0398 30.1494 43.0536 30.0594 43.0484 29.9694C43.0432 29.8795 43.0192 29.7917 42.9778 29.7117C42.9364 29.6317 42.8787 29.5612 42.8083 29.505Z" fill="#009387"/>
</g>
<rect x="6" y="0.416748" width="44" height="44.6122" rx="15" fill="#009387" fill-opacity="0.16"/>
<defs>
<clipPath id="clip0_119_138">
<rect width="44" height="44" fill="white" transform="translate(0 8)"/>
</clipPath>
</defs>
</svg>
