<svg width="50" height="52" viewBox="0 0 50 52" fill="none" xmlns="http://www.w3.org/2000/svg">
<rect x="6" y="0.896484" width="44" height="44.6122" rx="15" fill="#0066FF" fill-opacity="0.16"/>
<g clip-path="url(#clip0_119_119)">
<path fill-rule="evenodd" clip-rule="evenodd" d="M27.0967 28.6614C27.1716 28.6524 27.2439 28.6285 27.3095 28.5912C27.3751 28.554 27.4326 28.504 27.4786 28.4443C27.5247 28.3846 27.5584 28.3163 27.5778 28.2434C27.5972 28.1705 27.6019 28.0945 27.5917 28.0197C27.5865 27.1633 27.8423 26.3256 28.325 25.6181C28.7835 24.9286 29.2986 24.2786 29.865 23.6747C30.6882 22.7227 31.5635 21.8168 32.4867 20.9614C33.0473 21.0855 33.6179 21.1592 34.1917 21.1814C34.3089 21.1589 34.4147 21.0963 34.4907 21.0043C34.5668 20.9123 34.6084 20.7966 34.6084 20.6772C34.6084 20.5578 34.5668 20.4422 34.4907 20.3502C34.4147 20.2581 34.3089 20.1955 34.1917 20.1731C30.9283 19.8431 29.4983 17.7164 29.6817 15.6081C29.8245 14.4468 30.413 13.3865 31.3229 12.6511C32.2328 11.9156 33.393 11.5625 34.5583 11.6664C35.6096 11.6462 36.6273 12.0374 37.3944 12.7565C38.1615 13.4757 38.6174 14.466 38.665 15.5164C38.7716 16.0557 38.7708 16.6108 38.6626 17.1499C38.5544 17.6889 38.3409 18.2013 38.0344 18.6577C37.7278 19.1141 37.3343 19.5056 36.8762 19.8096C36.4182 20.1137 35.9046 20.3244 35.365 20.4297C35.2143 20.4492 35.0774 20.5277 34.9846 20.648C34.8918 20.7684 34.8506 20.9207 34.87 21.0714C34.8895 21.2221 34.968 21.359 35.0883 21.4518C35.2087 21.5446 35.3609 21.5858 35.5117 21.5664C36.1515 21.5098 36.7742 21.3292 37.345 21.0347C37.7991 21.5435 38.21 22.0893 38.5733 22.6664C38.7933 22.9964 38.995 23.3264 39.1783 23.6564C39.38 24.0047 39.5817 24.3531 39.765 24.7014C40.2101 25.568 40.5841 26.4693 40.8833 27.3964C40.8964 27.4693 40.9241 27.5388 40.9647 27.6008C41.0053 27.6628 41.058 27.7159 41.1196 27.757C41.1813 27.7981 41.2506 27.8263 41.3234 27.8399C41.3962 27.8536 41.471 27.8524 41.5433 27.8364C41.6916 27.8096 41.8232 27.725 41.9091 27.6013C41.9951 27.4775 42.0284 27.3247 42.0017 27.1764C41.9412 26.1001 41.7503 25.0351 41.4333 24.0047C41.3037 23.5411 41.1255 23.0925 40.9017 22.6664C40.6599 22.2485 40.3774 21.8555 40.0583 21.4931C39.5912 21.0213 39.0678 20.6088 38.5 20.2647C39.1477 19.6268 39.6475 18.8546 39.9643 18.0025C40.281 17.1504 40.407 16.2391 40.3333 15.3331C40.3262 14.5764 40.1694 13.8285 39.8721 13.1327C39.5748 12.4368 39.1427 11.8066 38.6009 11.2784C38.059 10.7501 37.418 10.3343 36.7148 10.0548C36.0115 9.77526 35.26 9.6376 34.5033 9.64973C32.8822 9.59938 31.3056 10.1847 30.1102 11.2809C28.9147 12.377 28.1951 13.897 28.105 15.5164C28.0752 16.5529 28.3492 17.5754 28.8932 18.4582C29.4372 19.3409 30.2274 20.0454 31.1667 20.4847C30.3861 20.8917 29.649 21.3769 28.9667 21.9331C28.3155 22.4857 27.7528 23.1349 27.2983 23.8581C26.8753 24.4826 26.5826 25.186 26.4377 25.9263C26.2928 26.6666 26.2987 27.4285 26.455 28.1664C26.4615 28.2423 26.4837 28.316 26.5202 28.3829C26.5567 28.4498 26.6067 28.5084 26.667 28.5549C26.7274 28.6014 26.7967 28.6349 26.8707 28.6533C26.9446 28.6716 27.0216 28.6744 27.0967 28.6614Z" fill="#0066FF"/>
<path fill-rule="evenodd" clip-rule="evenodd" d="M15.4366 44.3183C15.2171 43.9098 14.9592 43.5231 14.6666 43.1633C14.206 42.6687 13.6821 42.2371 13.1083 41.88C13.752 41.2469 14.2497 40.4808 14.5663 39.6352C14.883 38.7897 15.0111 37.8852 14.9416 36.985C14.9396 36.2197 14.784 35.4626 14.484 34.7585C14.1841 34.0544 13.7459 33.4177 13.1954 32.886C12.6449 32.3544 11.9934 31.9386 11.2793 31.6633C10.5652 31.388 9.80319 31.2588 9.03829 31.2833C7.41765 31.2233 5.8384 31.8029 4.64136 32.897C3.44431 33.9912 2.72547 35.5121 2.63996 37.1316C2.60861 38.1661 2.87987 39.1872 3.42046 40.0698C3.96106 40.9523 4.74749 41.6579 5.68329 42.1C4.90274 42.5069 4.16561 42.9922 3.48329 43.5483C2.83862 44.1023 2.28222 44.7515 1.83329 45.4733C1.40785 46.1002 1.1138 46.8067 0.968858 47.5503C0.823917 48.2939 0.831094 49.0592 0.989956 49.8C0.998795 49.8743 1.0227 49.946 1.06022 50.0107C1.09773 50.0755 1.14806 50.1319 1.20813 50.1765C1.26819 50.2211 1.33673 50.253 1.40955 50.2702C1.48237 50.2874 1.55793 50.2896 1.63162 50.2766C1.70651 50.2676 1.77885 50.2437 1.84443 50.2065C1.91001 50.1692 1.96751 50.1192 2.01358 50.0595C2.05966 49.9998 2.09338 49.9315 2.11279 49.8586C2.13219 49.7857 2.1369 49.7097 2.12662 49.635C2.12149 48.7785 2.37728 47.9408 2.85996 47.2333C3.31842 46.5439 3.83354 45.8938 4.39996 45.29C5.22789 44.3422 6.10288 43.4366 7.02162 42.5766C7.57897 42.7186 8.15148 42.7925 8.72662 42.7966C8.84388 42.7742 8.94964 42.7115 9.0257 42.6195C9.10177 42.5275 9.14338 42.4118 9.14338 42.2925C9.14338 42.1731 9.10177 42.0574 9.0257 41.9654C8.94964 41.8734 8.84388 41.8107 8.72662 41.7883C5.49996 41.4583 4.10662 39.3316 4.28996 37.2233C4.41513 36.0488 4.99609 34.9702 5.90798 34.2194C6.81987 33.4687 7.98991 33.1056 9.16662 33.2083C10.2175 33.2079 11.2271 33.6177 11.9804 34.3505C12.7337 35.0832 13.1713 36.0811 13.2 37.1316C13.4158 38.2183 13.1913 39.3462 12.576 40.2675C11.9607 41.1888 11.0047 41.8281 9.91829 42.045C9.84365 42.0534 9.77141 42.0764 9.70568 42.1128C9.63995 42.1491 9.58203 42.1981 9.53521 42.2568C9.48839 42.3155 9.4536 42.3829 9.43283 42.4551C9.41205 42.5273 9.40569 42.6028 9.41412 42.6775C9.42255 42.7521 9.44559 42.8243 9.48194 42.8901C9.51829 42.9558 9.56722 43.0137 9.62596 43.0605C9.68469 43.1073 9.75207 43.1421 9.82425 43.1629C9.89642 43.1837 9.97199 43.19 10.0466 43.1816C10.6864 43.125 11.3091 42.9444 11.88 42.65C12.3341 43.1587 12.7449 43.7045 13.1083 44.2816C13.3273 44.607 13.5293 44.9436 13.7133 45.29C13.915 45.62 14.1166 45.9683 14.3 46.3166C14.745 47.1832 15.119 48.0845 15.4183 49.0116C15.4726 49.1266 15.5639 49.2199 15.6776 49.2769C15.7913 49.3338 15.9208 49.351 16.0454 49.3256C16.1699 49.3003 16.2824 49.2339 16.3648 49.1371C16.4473 49.0403 16.4948 48.9186 16.5 48.7916C16.4395 47.7153 16.2486 46.6503 15.9316 45.62C15.8083 45.1713 15.6425 44.7355 15.4366 44.3183Z" fill="#0066FF"/>
<path fill-rule="evenodd" clip-rule="evenodd" d="M3.28164 26.8282C5.45858 28.3869 8.08518 29.1916 10.7616 29.1198C14.5226 29.0117 18.2745 28.6934 22 28.1665C22.0683 28.1644 22.1355 28.1482 22.1973 28.1188C22.259 28.0894 22.314 28.0476 22.3588 27.9959C22.4036 27.9443 22.4372 27.8839 22.4575 27.8186C22.4777 27.7533 22.4843 27.6845 22.4766 27.6165C22.472 27.5514 22.4545 27.4879 22.4253 27.4296C22.396 27.3713 22.3555 27.3194 22.3061 27.2768C22.2567 27.2342 22.1994 27.2018 22.1374 27.1814C22.0754 27.1611 22.01 27.1532 21.945 27.1582C18.2923 27.5671 14.6204 27.7813 10.945 27.7998C8.61205 27.7866 6.34682 27.0144 4.49164 25.5998C3.60699 24.7503 2.91262 23.7227 2.45438 22.5851C1.99614 21.4474 1.78446 20.2254 1.83331 18.9998C1.71556 16.5569 2.51307 14.1578 4.06997 12.2715C5.15694 11.1942 6.59491 10.5436 8.12164 10.4382C9.72278 10.2524 11.3448 10.4796 12.8333 11.0982C13.5686 11.4005 14.2297 11.8586 14.7709 12.4409C15.3121 13.0233 15.7206 13.7161 15.9683 14.4715C16.8483 17.0015 16.6283 20.0632 17.655 22.5198C18.0789 23.5187 18.7548 24.3905 19.6166 25.0498C20.8142 25.959 22.1197 26.7164 23.5033 27.3048C23.5706 27.3393 23.644 27.36 23.7194 27.3657C23.7948 27.3715 23.8705 27.3621 23.9422 27.3382C24.0139 27.3143 24.0801 27.2764 24.137 27.2266C24.1938 27.1768 24.2402 27.1161 24.2733 27.0482C24.3186 26.9176 24.3179 26.7755 24.2712 26.6454C24.2245 26.5153 24.1347 26.4051 24.0166 26.3332C22.7113 25.7483 21.4804 25.0097 20.35 24.1332C19.6812 23.5847 19.1584 22.8793 18.8283 22.0798C17.7833 18.9998 18.3333 15.3332 16.885 12.5648C16.1294 11.1887 14.9356 10.1046 13.4933 9.48485C11.7647 8.72664 9.87434 8.41158 7.99331 8.56818C5.99019 8.6965 4.09853 9.53507 2.65831 10.9332C0.792758 13.194 -0.155955 16.0729 -2.7135e-05 18.9998C-0.0334311 20.462 0.241532 21.9148 0.806955 23.2636C1.37238 24.6124 2.21558 25.8269 3.28164 26.8282Z" fill="#0066FF"/>
<path fill-rule="evenodd" clip-rule="evenodd" d="M41.3417 33.2997C39.9258 31.8985 38.0499 31.0582 36.0617 30.9347C34.1803 30.7686 32.2875 31.0841 30.5617 31.8514C29.1175 32.4592 27.9219 33.5384 27.17 34.9131C25.6483 37.6997 26.2717 41.4214 25.1533 44.3914C24.8178 45.2181 24.2748 45.9442 23.5767 46.4997C22.4468 47.3821 21.2159 48.1268 19.91 48.7181C19.7762 48.7886 19.6749 48.9081 19.627 49.0515C19.5792 49.195 19.5886 49.3514 19.6533 49.4881C19.7271 49.6187 19.8466 49.7173 19.9889 49.7647C20.1312 49.8121 20.286 49.805 20.4233 49.7447C21.804 49.1428 23.1086 48.3798 24.31 47.4714C25.167 46.8148 25.8422 45.9503 26.2717 44.9597C27.2983 42.4847 27.0783 39.4597 27.9583 36.8931C28.2046 36.1169 28.6202 35.4051 29.175 34.809C29.7298 34.213 30.4101 33.7476 31.1667 33.4464C32.64 32.8434 34.2418 32.6226 35.8233 32.8047C37.3501 32.9101 38.788 33.5608 39.875 34.6381C41.4415 36.5077 42.2581 38.8923 42.1667 41.3297C42.2304 42.5311 42.0451 43.7327 41.6224 44.859C41.1996 45.9853 40.5485 47.0121 39.71 47.8747C37.8531 49.2839 35.5877 50.0498 33.2567 50.0564C29.5807 50.0559 25.9078 49.8416 22.2567 49.4147C22.1824 49.4005 22.106 49.4029 22.0327 49.4216C21.9595 49.4404 21.8913 49.4751 21.833 49.5232C21.7748 49.5714 21.7279 49.6319 21.6957 49.7002C21.6635 49.7686 21.6468 49.8433 21.6468 49.9189C21.6468 49.9945 21.6635 50.0692 21.6957 50.1376C21.7279 50.206 21.7748 50.2664 21.833 50.3146C21.8913 50.3627 21.9595 50.3974 22.0327 50.4162C22.106 50.4349 22.1824 50.4373 22.2567 50.4231C25.9622 50.9786 29.6957 51.3275 33.44 51.4681C36.1165 51.5398 38.7431 50.7351 40.92 49.1764C41.9473 48.1596 42.7517 46.9402 43.2819 45.5955C43.8122 44.2509 44.0568 42.8107 44 41.3664C44.1632 38.4385 43.2136 35.557 41.3417 33.2997Z" fill="#0066FF"/>
<path fill-rule="evenodd" clip-rule="evenodd" d="M8.21326 16.4881H9.16659H10.1199H12.4116C12.5648 16.5124 12.7213 16.4749 12.8468 16.3838C12.9723 16.2926 13.0564 16.1554 13.0808 16.0022C13.1051 15.8491 13.0675 15.6925 12.9764 15.567C12.8853 15.4416 12.7481 15.3574 12.5949 15.3331C11.8249 15.0947 11.0733 14.8564 10.2849 14.6914C9.94681 14.6205 9.60343 14.5776 9.25826 14.5631C8.91047 14.5356 8.56105 14.5356 8.21326 14.5631C7.40213 14.674 6.60385 14.8644 5.82993 15.1314C5.76273 15.1497 5.70016 15.182 5.6463 15.2262C5.59243 15.2703 5.54849 15.3253 5.51735 15.3876C5.4862 15.4499 5.46855 15.5181 5.46555 15.5877C5.46255 15.6572 5.47426 15.7267 5.49993 15.7914C5.51821 15.9246 5.58797 16.0452 5.69424 16.1275C5.8005 16.2097 5.93479 16.2471 6.06826 16.2314C6.74659 16.2497 7.46159 16.4147 8.21326 16.4881Z" fill="#0066FF"/>
<path fill-rule="evenodd" clip-rule="evenodd" d="M31.5883 38.8916H33.88H34.8333H35.7867C36.5383 38.8916 37.2533 38.6532 38.0417 38.6166C38.1126 38.636 38.1868 38.64 38.2594 38.6283C38.3319 38.6165 38.4011 38.5893 38.4623 38.5485C38.5235 38.5077 38.5751 38.4543 38.6138 38.3918C38.6525 38.3293 38.6774 38.2592 38.6867 38.1863C38.6959 38.1134 38.6895 38.0393 38.6676 37.9691C38.6458 37.8989 38.6092 37.8342 38.5602 37.7794C38.5112 37.7246 38.451 37.681 38.3837 37.6514C38.3164 37.6219 38.2435 37.6072 38.17 37.6082C37.3967 37.3391 36.5982 37.1487 35.7867 37.0399C35.4389 37.0124 35.0895 37.0124 34.7417 37.0399C34.3974 37.0646 34.0547 37.1074 33.715 37.1682C32.9329 37.3432 32.1615 37.5636 31.405 37.8282C31.2556 37.8552 31.1224 37.939 31.0336 38.0621C30.9447 38.1852 30.9069 38.3379 30.9283 38.4882C30.9671 38.6263 31.0567 38.7447 31.1791 38.8195C31.3016 38.8943 31.4477 38.92 31.5883 38.8916Z" fill="#0066FF"/>
<path fill-rule="evenodd" clip-rule="evenodd" d="M5.02329 21.5665C5.0383 21.6306 5.06597 21.6912 5.10468 21.7445C5.14339 21.7978 5.19235 21.8429 5.2487 21.877C5.30505 21.9112 5.36765 21.9337 5.43283 21.9434C5.49801 21.953 5.56446 21.9495 5.62829 21.9332H8.21329H9.31329L10.4133 21.8232L13.035 21.4932C13.1096 21.4956 13.184 21.4833 13.2539 21.457C13.3238 21.4307 13.3878 21.3908 13.4423 21.3398C13.4968 21.2887 13.5406 21.2274 13.5714 21.1593C13.6022 21.0913 13.6192 21.0178 13.6216 20.9432C13.6241 20.8685 13.6118 20.7941 13.5855 20.7242C13.5591 20.6543 13.5193 20.5903 13.4682 20.5358C13.4171 20.4813 13.3558 20.4375 13.2878 20.4067C13.2197 20.3759 13.1463 20.3589 13.0716 20.3565C12.18 20.193 11.2805 20.0768 10.3766 20.0082C9.98599 19.9807 9.59391 19.9807 9.20329 20.0082C8.81446 20.0197 8.42766 20.0688 8.04829 20.1548C7.17484 20.341 6.32142 20.6111 5.49995 20.9615C5.42721 20.9655 5.35615 20.985 5.2915 21.0186C5.22685 21.0522 5.1701 21.0991 5.12501 21.1564C5.07992 21.2136 5.04753 21.2798 5.02999 21.3505C5.01245 21.4212 5.01016 21.4948 5.02329 21.5665Z" fill="#0066FF"/>
<path fill-rule="evenodd" clip-rule="evenodd" d="M30.3783 43.2731C30.3806 43.3494 30.3983 43.4244 30.4302 43.4937C30.4621 43.563 30.5077 43.6252 30.5641 43.6765C30.6206 43.7279 30.6868 43.7673 30.7588 43.7925C30.8308 43.8177 30.9072 43.8281 30.9833 43.8231L33.5867 44.1531L34.6867 44.2631H35.7867H38.3717C38.5028 44.2906 38.6395 44.2657 38.7525 44.1938C38.8656 44.1219 38.946 44.0086 38.9767 43.8781C38.993 43.8143 38.9965 43.7479 38.9869 43.6827C38.9772 43.6175 38.9547 43.5549 38.9205 43.4986C38.8864 43.4422 38.8413 43.3932 38.788 43.3545C38.7347 43.3158 38.6742 43.2882 38.61 43.2731C37.7604 42.9045 36.876 42.622 35.97 42.4298C35.585 42.4298 35.2 42.3198 34.7967 42.2831C34.3933 42.2465 34.0267 42.2831 33.6417 42.2831C32.7377 42.3506 31.8381 42.4669 30.9467 42.6315C30.8663 42.6336 30.7873 42.6523 30.7144 42.6862C30.6416 42.7202 30.5765 42.7688 30.5232 42.8289C30.4699 42.8891 30.4296 42.9596 30.4047 43.036C30.3797 43.1124 30.3708 43.1931 30.3783 43.2731Z" fill="#0066FF"/>
</g>
<defs>
<clipPath id="clip0_119_119">
<rect width="44" height="44" fill="white" transform="translate(0 7.99976)"/>
</clipPath>
</defs>
</svg>
