<svg width="50" height="52" viewBox="0 0 50 52" fill="none" xmlns="http://www.w3.org/2000/svg">
<g clip-path="url(#clip0_119_122)">
<path d="M7.20499 15.1682C7.57365 15.1505 7.92246 14.996 8.18344 14.735C8.44442 14.4741 8.59886 14.1252 8.61666 13.7566C8.59311 13.3611 8.41802 12.9898 8.12779 12.7201C7.83755 12.4503 7.45452 12.3028 7.05833 12.3082C6.86706 12.3197 6.68006 12.3695 6.50841 12.4547C6.33677 12.5399 6.18399 12.6586 6.05915 12.804C5.93432 12.9494 5.83996 13.1183 5.7817 13.3009C5.72344 13.4834 5.70245 13.6758 5.71999 13.8666C5.73164 14.0497 5.77934 14.2287 5.86036 14.3933C5.94137 14.558 6.0541 14.705 6.19208 14.8259C6.33006 14.9469 6.49057 15.0394 6.66439 15.0981C6.83822 15.1569 7.02193 15.1807 7.20499 15.1682Z" fill="#6308FD"/>
<path d="M14.3 13.7564C14.2777 13.3764 14.1155 13.0182 13.8447 12.7507C13.5738 12.4833 13.2135 12.3256 12.8333 12.3081C12.642 12.3196 12.455 12.3694 12.2834 12.4545C12.1117 12.5397 11.959 12.6585 11.8341 12.8039C11.7093 12.9492 11.6149 13.1182 11.5567 13.3007C11.4984 13.4833 11.4774 13.6756 11.495 13.8664C11.5174 14.2106 11.6667 14.5341 11.9139 14.7746C12.1611 15.015 12.4887 15.1552 12.8333 15.1681C13.2102 15.1596 13.5702 15.0098 13.8419 14.7483C14.1136 14.4868 14.2771 14.1328 14.3 13.7564Z" fill="#6308FD"/>
<path d="M19.745 13.7567C19.7306 13.3611 19.5609 12.9872 19.2726 12.7161C18.9843 12.4449 18.6007 12.2984 18.205 12.3083C18.0137 12.3198 17.8267 12.3696 17.6551 12.4548C17.4834 12.5399 17.3307 12.6587 17.2058 12.8041C17.081 12.9494 16.9866 13.1184 16.9284 13.3009C16.8701 13.4835 16.8491 13.6759 16.8667 13.8667C16.8903 14.2331 17.0576 14.5754 17.3322 14.8192C17.6069 15.0629 17.9667 15.1884 18.3333 15.1683C18.702 15.1505 19.0508 14.9961 19.3118 14.7351C19.5728 14.4741 19.7272 14.1253 19.745 13.7567Z" fill="#6308FD"/>
<path d="M41.1033 17.1667C39.8933 17.1667 38.665 17.1667 37.4366 17.0567C34.5583 16.8733 31.6983 16.5433 28.8383 16.36C26.3083 16.2133 23.76 16.1033 21.1933 16.1217C18.6266 16.14 16.115 16.25 13.585 16.3783C11.055 16.5067 8.34164 16.6717 5.73831 17.1667C4.56506 17.3649 3.40248 17.6219 2.25498 17.9367C2.29564 15.9848 2.46098 14.0375 2.74998 12.1067C2.77753 11.9539 2.74532 11.7964 2.66001 11.6668C2.5747 11.5371 2.44282 11.4452 2.29164 11.41C2.13889 11.3824 1.9814 11.4147 1.85173 11.5C1.72206 11.5853 1.63014 11.7172 1.59498 11.8683C0.754466 16.3625 0.288422 20.9187 0.201644 25.49C0.201644 27.3233 0.0549771 29.3767 0.0183105 31.3383C-0.0183562 33.3 0.0183105 35.28 0.0183105 37.1683C0.0729315 41.2674 0.336049 45.361 0.806644 49.4333C0.824262 50.0041 0.97493 50.5628 1.24664 51.065C1.29444 51.1138 1.35149 51.1525 1.41445 51.179C1.47741 51.2055 1.54502 51.2191 1.61331 51.2191C1.6816 51.2191 1.74921 51.2055 1.81217 51.179C1.87513 51.1525 1.93218 51.1138 1.97998 51.065C2.0558 50.9682 2.097 50.8488 2.097 50.7258C2.097 50.6029 2.0558 50.4835 1.97998 50.3867C1.79664 50.3867 1.86998 49.8367 1.83331 49.305C1.66831 47.1233 1.83331 42.485 1.83331 37.15C1.83331 34.5467 1.83331 31.76 1.94331 29.01V23.51C1.94331 21.6767 1.94331 20.375 2.05331 18.945C3.26249 18.6667 4.48676 18.4586 5.71998 18.3217C8.30498 18.0467 10.9266 18.01 13.4566 17.9917C15.9866 17.9733 18.4983 17.9917 21.0283 17.9917H28.5816C31.4416 17.9917 34.32 18.23 37.1983 18.2667H40.865C40.9412 18.2667 41.0166 18.2514 41.0868 18.2217C41.157 18.192 41.2205 18.1485 41.2735 18.0938C41.3265 18.039 41.368 17.9742 41.3954 17.9031C41.4229 17.832 41.4358 17.7562 41.4333 17.68C41.4307 17.5724 41.3985 17.4676 41.3403 17.377C41.2821 17.2865 41.2001 17.2137 41.1033 17.1667Z" fill="#6308FD"/>
<path d="M44 40.4132C44 31.0999 43.6333 19.3666 43.7067 17.5882C43.7869 16.363 43.7254 15.1326 43.5233 13.9216C43.3546 13.0265 43.0121 12.1731 42.515 11.4099C41.7465 10.4343 40.6417 9.78053 39.4167 9.57655C37.0559 9.23317 34.6695 9.0982 32.285 9.17322C29.3333 9.02655 26.3267 8.87989 23.3567 8.82489C20.3867 8.76989 17.4167 8.75155 14.4283 8.84322C12.0554 8.84458 9.68514 9.00382 7.33333 9.31989C5.75236 9.52698 4.20153 9.92084 2.71333 10.4932C2.58268 10.5427 2.47675 10.6416 2.41843 10.7685C2.36011 10.8954 2.35408 11.0402 2.40167 11.1716C2.42591 11.2361 2.46292 11.2952 2.51048 11.3451C2.55805 11.3951 2.6152 11.435 2.67851 11.4623C2.74183 11.4897 2.81001 11.5041 2.879 11.5045C2.94798 11.5049 3.01634 11.4915 3.08 11.4649C4.50764 10.9585 5.99112 10.6261 7.49833 10.4749C9.78871 10.2491 12.0912 10.1694 14.3917 10.2366C16.775 10.2366 19.14 10.2366 21.4867 10.4199C25.0433 10.5666 28.545 10.8049 32.12 11.0982C33.5317 11.2082 35.9517 10.9332 38.0233 11.2082C38.5504 11.2129 39.0706 11.3279 39.5505 11.5458C40.0305 11.7637 40.4595 12.0796 40.81 12.4732C41.1691 13.0301 41.4122 13.6536 41.525 14.3066C41.7138 15.3834 41.7753 16.4787 41.7083 17.5699C41.7083 19.4032 42.24 31.1182 42.5333 40.4682C42.6617 44.5199 42.735 48.1316 42.68 50.2399C42.6839 50.3929 42.744 50.5392 42.8488 50.6507C42.9536 50.7623 43.0958 50.8314 43.2483 50.8449C43.3254 50.8473 43.4022 50.8346 43.4743 50.8073C43.5464 50.7801 43.6124 50.7389 43.6686 50.6861C43.7248 50.6333 43.77 50.57 43.8017 50.4997C43.8334 50.4294 43.851 50.3536 43.8533 50.2766C44 48.1132 44 44.5016 44 40.4132Z" fill="#6308FD"/>
<path d="M28.1783 26.2231H31.4417C31.9 26.2231 32.3767 26.2231 32.835 26.1131L34.21 25.9481C35.31 25.8014 36.3733 25.6181 37.4367 25.5264C37.5923 25.5264 37.7415 25.4646 37.8515 25.3546C37.9615 25.2446 38.0233 25.0954 38.0233 24.9398C38.0233 24.7842 37.9615 24.635 37.8515 24.5249C37.7415 24.4149 37.5923 24.3531 37.4367 24.3531C36.3172 24.2108 35.1914 24.1252 34.0633 24.0964H32.6333C32.1523 24.1276 31.6742 24.195 31.2033 24.2981C30.1023 24.5382 29.0183 24.8505 27.9583 25.2331C27.8921 25.2462 27.8291 25.2723 27.7729 25.3099C27.7167 25.3474 27.6685 25.3957 27.6311 25.4519C27.5936 25.5081 27.5676 25.5711 27.5545 25.6374C27.5415 25.7037 27.5416 25.7719 27.555 25.8381C27.5701 25.9046 27.5982 25.9675 27.6379 26.023C27.6775 26.0785 27.7278 26.1255 27.7859 26.1614C27.8439 26.1972 27.9085 26.2212 27.9759 26.2317C28.0433 26.2423 28.1121 26.2394 28.1783 26.2231Z" fill="#6308FD"/>
<path d="M37.785 40.0833C36.6716 39.9417 35.5519 39.8561 34.43 39.8267H32.9817C32.5005 39.8565 32.0223 39.924 31.5516 40.0283C30.4506 40.2684 29.3666 40.5808 28.3067 40.9633C28.2404 40.9765 28.1774 41.0026 28.1212 41.0401C28.0651 41.0776 28.0169 41.1259 27.9794 41.1821C27.9419 41.2383 27.9159 41.3014 27.9029 41.3676C27.8898 41.4339 27.89 41.5021 27.9033 41.5683C27.9113 41.6371 27.9341 41.7032 27.9702 41.7623C28.0063 41.8213 28.0548 41.8717 28.1124 41.9101C28.17 41.9485 28.2352 41.9739 28.3036 41.9845C28.372 41.9951 28.4418 41.9907 28.5083 41.9717H31.7717C32.2483 41.9717 32.7067 41.9717 33.165 41.8617C33.6233 41.7517 34.0817 41.77 34.54 41.6967C35.64 41.55 36.7033 41.3667 37.7667 41.275C37.924 41.2751 38.0752 41.2138 38.1881 41.1043C38.301 40.9948 38.3669 40.8456 38.3717 40.6883C38.3741 40.6098 38.3607 40.5315 38.3324 40.4582C38.304 40.3849 38.2612 40.318 38.2064 40.2616C38.1517 40.2052 38.0862 40.1603 38.0138 40.1297C37.9414 40.099 37.8636 40.0833 37.785 40.0833Z" fill="#6308FD"/>
<path d="M31.3683 31.1183C31.8267 31.1183 32.2667 31.1183 32.725 31.0083C33.1833 30.8983 33.6417 30.8983 34.0817 30.825C35.1633 30.66 36.2267 30.4217 37.29 30.22C37.444 30.2016 37.585 30.1247 37.6839 30.0053C37.7829 29.8859 37.8322 29.733 37.8217 29.5783C37.7989 29.4228 37.7183 29.2817 37.5959 29.1831C37.4735 29.0845 37.3184 29.0358 37.1617 29.0467H33.9167H32.5417C32.0736 29.0856 31.6083 29.1529 31.1483 29.2483C30.0736 29.4895 29.0144 29.7956 27.9767 30.165C27.8418 30.1917 27.7225 30.2697 27.6439 30.3825C27.5653 30.4953 27.5334 30.6342 27.555 30.77C27.5657 30.8374 27.5903 30.9019 27.6272 30.9594C27.6641 31.0169 27.7124 31.0661 27.7693 31.104C27.8261 31.1419 27.8901 31.1676 27.9574 31.1795C28.0246 31.1915 28.0936 31.1894 28.16 31.1733C29.2233 31.1183 30.305 31.155 31.3683 31.1183Z" fill="#6308FD"/>
<path d="M37.51 44.8682H34.265H32.8533C32.3914 44.9084 31.9323 44.9758 31.4783 45.0698C30.3975 45.3109 29.3322 45.617 28.2883 45.9865C28.2221 46.001 28.1594 46.0283 28.1037 46.067C28.0481 46.1057 28.0006 46.1549 27.964 46.212C27.9274 46.269 27.9024 46.3327 27.8904 46.3994C27.8784 46.4661 27.8797 46.5345 27.8941 46.6007C27.9086 46.6669 27.9359 46.7296 27.9746 46.7852C28.0133 46.8409 28.0625 46.8884 28.1196 46.925C28.1766 46.9616 28.2403 46.9866 28.307 46.9986C28.3737 47.0106 28.4421 47.0093 28.5083 46.9949H31.6983C32.1566 46.9949 32.5966 46.9948 33.055 46.8848C33.5133 46.7748 33.9716 46.7749 34.43 46.7015C35.4933 46.5365 36.5383 46.2982 37.6016 46.0965C37.6788 46.0896 37.7538 46.0675 37.8224 46.0315C37.891 45.9954 37.9517 45.9461 38.0012 45.8865C38.0506 45.8268 38.0877 45.758 38.1104 45.6839C38.1331 45.6098 38.1409 45.532 38.1333 45.4549C38.1363 45.3738 38.1219 45.2931 38.0911 45.2181C38.0604 45.1431 38.0139 45.0755 37.9549 45.0199C37.8958 44.9644 37.8256 44.9221 37.7488 44.8959C37.6721 44.8697 37.5906 44.8603 37.51 44.8682Z" fill="#6308FD"/>
<path d="M6.76499 34.1249C6.84119 34.1249 6.91662 34.1096 6.9868 34.0799C7.05697 34.0502 7.12046 34.0067 7.17348 33.952C7.2265 33.8972 7.26798 33.8324 7.29544 33.7613C7.3229 33.6902 7.33578 33.6144 7.33332 33.5382C7.44332 32.7682 7.57165 32.0532 7.66332 31.2832C7.6822 30.9657 7.6822 30.6474 7.66332 30.3299V29.3949C7.66332 28.6249 7.47999 27.9099 7.42499 27.1582C7.44099 27.0226 7.40423 26.8861 7.32232 26.7769C7.24041 26.6676 7.11962 26.5941 6.98499 26.5715C6.9161 26.5613 6.84585 26.5651 6.7785 26.5829C6.71116 26.6006 6.64812 26.6319 6.59324 26.6747C6.53836 26.7176 6.49278 26.7712 6.45927 26.8323C6.42576 26.8933 6.40502 26.9605 6.39832 27.0299C6.12653 27.7686 5.918 28.5291 5.77499 29.3032C5.74769 29.6326 5.74769 29.9638 5.77499 30.2932C5.75675 30.6229 5.75675 30.9535 5.77499 31.2832C5.86665 32.0532 5.99499 32.7865 6.14165 33.5565C6.14128 33.636 6.15759 33.7147 6.18953 33.7875C6.22146 33.8603 6.26832 33.9256 6.32706 33.9792C6.38581 34.0327 6.45514 34.0734 6.53057 34.0985C6.606 34.1236 6.68586 34.1326 6.76499 34.1249Z" fill="#6308FD"/>
<path d="M7.51664 42.9799C7.6083 42.2282 7.73664 41.5132 7.84664 40.7432V39.7899C7.86497 39.4785 7.86497 39.1663 7.84664 38.8549C7.84664 38.0849 7.69997 37.3515 7.68164 36.5999C7.70257 36.4743 7.67929 36.3454 7.61576 36.235C7.55224 36.1247 7.45241 36.0398 7.3333 35.9949C7.19773 35.9789 7.06119 36.0156 6.95197 36.0975C6.84276 36.1795 6.76923 36.3002 6.74664 36.4349C6.45932 37.1747 6.22647 37.9345 6.04997 38.7082C6.022 39.0437 6.022 39.381 6.04997 39.7165C6.0318 40.0524 6.0318 40.389 6.04997 40.7249C6.04997 41.5132 6.26997 42.2649 6.41664 43.0349C6.4261 43.1921 6.49652 43.3395 6.61292 43.4456C6.72933 43.5517 6.88253 43.6083 7.03997 43.6032C7.18237 43.5765 7.30985 43.4981 7.39786 43.383C7.48587 43.2679 7.52818 43.1243 7.51664 42.9799Z" fill="#6308FD"/>
<path d="M23.0266 37.6082C23.0266 37.4526 22.9648 37.3033 22.8548 37.1933C22.7448 37.0833 22.5956 37.0215 22.44 37.0215C22.2842 37.0306 22.1375 37.0978 22.0289 37.2098C21.9203 37.3218 21.8576 37.4705 21.8533 37.6265C21.7616 38.2865 21.6333 38.9098 21.5783 39.5698V40.3948V41.2198C21.6883 41.8615 21.9083 42.4482 22.0366 43.0532C22.0316 43.1212 22.0406 43.1895 22.0633 43.2539C22.0859 43.3182 22.1215 43.3772 22.168 43.4271C22.2145 43.477 22.2708 43.5168 22.3333 43.544C22.3959 43.5711 22.4634 43.585 22.5316 43.5848C22.6665 43.5851 22.7965 43.5342 22.8952 43.4423C22.9939 43.3504 23.054 43.2244 23.0633 43.0898C23.2328 42.4436 23.3675 41.7888 23.4666 41.1282C23.494 40.8477 23.494 40.5653 23.4666 40.2848C23.4633 40.0075 23.4326 39.7311 23.375 39.4598C23.32 38.8548 23.155 38.2498 23.0266 37.6082Z" fill="#6308FD"/>
<path d="M21.5416 27.4514C21.5416 28.1664 21.3583 28.8814 21.3033 29.6148V30.5314C21.2851 30.8429 21.2851 31.155 21.3033 31.4664C21.4427 32.2084 21.6201 32.9427 21.835 33.6664C21.8444 33.8042 21.9071 33.9329 22.0097 34.0253C22.1124 34.1177 22.2469 34.1665 22.385 34.1614C22.454 34.1592 22.5219 34.143 22.5845 34.1138C22.6472 34.0847 22.7033 34.0432 22.7495 33.9918C22.7957 33.9404 22.8311 33.8803 22.8535 33.8149C22.8759 33.7496 22.8849 33.6804 22.88 33.6114C22.88 32.8781 23.155 32.1814 23.2283 31.4481V30.5131C23.2554 30.202 23.2554 29.8892 23.2283 29.5781C23.1276 28.8363 22.9806 28.1016 22.7883 27.3781C22.7837 27.2993 22.7633 27.2223 22.7283 27.1516C22.6932 27.0809 22.6443 27.018 22.5844 26.9667C22.5245 26.9153 22.4549 26.8766 22.3796 26.8528C22.3044 26.829 22.2252 26.8206 22.1466 26.8281C22.0656 26.8281 21.9854 26.8443 21.9108 26.8759C21.8362 26.9074 21.7686 26.9536 21.7122 27.0117C21.6558 27.0699 21.6116 27.1388 21.5823 27.2143C21.553 27.2898 21.5392 27.3705 21.5416 27.4514Z" fill="#6308FD"/>
<path d="M20.5883 24.1883L20.9366 24.7749C20.9553 24.8399 20.987 24.9004 21.0299 24.9527C21.0728 25.0049 21.1259 25.0478 21.1861 25.0787C21.2462 25.1097 21.312 25.1279 21.3795 25.1324C21.4469 25.1369 21.5146 25.1276 21.5783 25.1049C21.6462 25.0939 21.7112 25.0694 21.7694 25.0327C21.8276 24.9961 21.8779 24.9482 21.9173 24.8917C21.9566 24.8353 21.9842 24.7715 21.9984 24.7042C22.0126 24.6369 22.0131 24.5674 22 24.4999C21.9691 24.1422 21.914 23.7869 21.835 23.4366C21.7698 23.2297 21.6773 23.0324 21.56 22.8499C21.1879 22.348 20.6479 21.9967 20.0383 21.8599C19.6868 21.7947 19.3264 21.7947 18.975 21.8599C18.2416 21.8599 17.5083 22.1349 16.9216 22.1533C16.8445 22.143 16.7661 22.1482 16.691 22.1685C16.6159 22.1889 16.5456 22.224 16.4841 22.2717C16.4227 22.3195 16.3714 22.379 16.3332 22.4468C16.295 22.5146 16.2707 22.5893 16.2616 22.6666C16.2458 22.8215 16.2903 22.9766 16.3859 23.0995C16.4815 23.2225 16.6209 23.3038 16.775 23.3266L20.4416 24.0416C20.4948 24.086 20.5439 24.1351 20.5883 24.1883Z" fill="#6308FD"/>
<path d="M22.825 45.1615C22.6871 45.1615 22.5546 45.2149 22.4554 45.3107C22.3562 45.4065 22.2981 45.5371 22.2933 45.6749C22.2281 46.2362 22.1301 46.7933 22 47.3432C21.9134 47.7691 21.7103 48.1626 21.4133 48.4799C21.256 48.6629 21.0538 48.8018 20.8266 48.8832C20.4985 49.0212 20.1617 49.1376 19.8183 49.2315C19.0127 49.4016 18.1988 49.5301 17.38 49.6165C17.2955 49.6014 17.2088 49.605 17.1259 49.6271C17.043 49.6491 16.9659 49.6891 16.9001 49.7442C16.8343 49.7992 16.7814 49.868 16.7451 49.9458C16.7088 50.0235 16.69 50.1082 16.69 50.194C16.69 50.2798 16.7088 50.3646 16.7451 50.4423C16.7814 50.52 16.8343 50.5889 16.9001 50.6439C16.9659 50.699 17.043 50.7389 17.1259 50.761C17.2088 50.783 17.2955 50.7866 17.38 50.7715C18.659 51.0028 19.9692 51.0028 21.2483 50.7715C21.9793 50.6104 22.6292 50.1945 23.0816 49.5982C23.3808 49.07 23.5564 48.4807 23.595 47.8749C23.6 47.1314 23.5387 46.3891 23.4116 45.6565C23.4098 45.584 23.3926 45.5128 23.3612 45.4474C23.3298 45.382 23.2849 45.324 23.2295 45.2772C23.1741 45.2305 23.1094 45.196 23.0396 45.176C22.9699 45.1561 22.8967 45.1512 22.825 45.1615Z" fill="#6308FD"/>
<path d="M13.6033 22.2082C12.8032 21.9679 11.9888 21.778 11.165 21.6398C10.5489 21.581 9.92727 21.637 9.33162 21.8048C8.76435 21.9442 8.2452 22.234 7.82894 22.6438C7.41269 23.0536 7.11477 23.5682 6.96662 24.1332C6.9378 24.2076 6.92448 24.2872 6.92748 24.367C6.93047 24.4468 6.94973 24.5251 6.98405 24.5972C7.01838 24.6693 7.06706 24.7336 7.12711 24.7862C7.18716 24.8388 7.25732 24.8786 7.33329 24.9032C7.48154 24.9428 7.63942 24.9228 7.77308 24.8474C7.90674 24.772 8.00554 24.6472 8.04829 24.4998C8.18429 24.29 8.36179 24.1101 8.56988 23.9714C8.77797 23.8327 9.01224 23.738 9.25829 23.6932C9.4992 23.6359 9.74451 23.5991 9.99162 23.5832C10.3766 23.5832 10.7983 23.5832 11.22 23.4732L13.5666 23.2348C13.6404 23.2379 13.7141 23.225 13.7824 23.197C13.8508 23.169 13.9124 23.1266 13.9628 23.0726C14.0133 23.0187 14.0515 22.9545 14.0749 22.8844C14.0983 22.8143 14.1063 22.74 14.0983 22.6665C14.089 22.5417 14.0328 22.425 13.941 22.34C13.8491 22.2549 13.7285 22.2078 13.6033 22.2082Z" fill="#6308FD"/>
<path d="M13.53 49.5615C12.65 49.5615 11.3483 49.4515 10.1383 49.2499C9.76765 49.2144 9.40367 49.128 9.05662 48.9932C8.8603 48.9388 8.67442 48.852 8.50662 48.7365C8.32295 48.5069 8.19719 48.2366 8.13995 47.9482C8.03275 47.5013 7.95316 47.0482 7.90162 46.5915C7.88917 46.445 7.82529 46.3075 7.72128 46.2035C7.61728 46.0995 7.47984 46.0356 7.33328 46.0232C7.25623 46.0256 7.1804 46.0431 7.11012 46.0748C7.03985 46.1065 6.97651 46.1517 6.92373 46.2079C6.87095 46.2641 6.82976 46.3301 6.80251 46.4022C6.77527 46.4744 6.76251 46.5511 6.76495 46.6282C6.69155 47.3536 6.69155 48.0845 6.76495 48.8099C6.81779 49.2681 7.00248 49.7012 7.29662 50.0565C8.01744 50.7536 8.97115 51.1586 9.97328 51.1932C11.2144 51.1302 12.4444 50.9273 13.64 50.5882C13.7761 50.5882 13.9067 50.5341 14.0029 50.4378C14.0992 50.3416 14.1533 50.211 14.1533 50.0749C14.1533 49.9387 14.0992 49.8081 14.0029 49.7119C13.9067 49.6156 13.7761 49.5615 13.64 49.5615H13.53Z" fill="#6308FD"/>
</g>
<rect x="6" y="0.416748" width="44" height="44.6122" rx="15" fill="#7C3AED" fill-opacity="0.16"/>
<defs>
<clipPath id="clip0_119_122">
<rect width="44" height="44" fill="white" transform="translate(0 8)"/>
</clipPath>
</defs>
</svg>
