<svg width="50" height="51" viewBox="0 0 50 51" fill="none" xmlns="http://www.w3.org/2000/svg">
<rect x="6" y="0.910645" width="44" height="44.6122" rx="15" fill="#15B000" fill-opacity="0.16"/>
<g clip-path="url(#clip0_119_116)">
<path fill-rule="evenodd" clip-rule="evenodd" d="M13.2183 40.3851C13.2946 40.2596 13.3227 40.1108 13.2973 39.9662C13.2719 39.8216 13.1949 39.6911 13.0805 39.5992C12.966 39.5072 12.8221 39.4599 12.6754 39.4662C12.5288 39.4725 12.3894 39.5319 12.2833 39.6334C11.8205 40.2678 11.2246 40.7933 10.5374 41.1733C9.85024 41.5534 9.08832 41.7786 8.30497 41.8334C7.57158 41.8238 6.84906 41.6548 6.18744 41.3383C5.52583 41.0217 4.94094 40.5651 4.4733 40.0001C4.03136 39.2712 3.76487 38.4496 3.69488 37.6001C3.62488 36.7506 3.75329 35.8964 4.06997 35.1051C4.33103 34.3017 4.83776 33.6005 5.51866 33.1005C6.19956 32.6005 7.02026 32.327 7.86497 32.3184C8.62561 32.2958 9.38389 32.4139 10.1016 32.6667C10.7937 32.9229 11.4199 33.33 11.935 33.8584C11.9771 33.9174 12.0304 33.9675 12.0919 34.0059C12.1534 34.0442 12.2219 34.0701 12.2934 34.082C12.3649 34.0939 12.438 34.0917 12.5087 34.0753C12.5793 34.059 12.646 34.0289 12.705 33.9867C12.764 33.9446 12.8141 33.8913 12.8524 33.8298C12.8908 33.7683 12.9167 33.6998 12.9286 33.6283C12.9405 33.5568 12.9382 33.4837 12.9219 33.413C12.9055 33.3424 12.8754 33.2757 12.8333 33.2167C12.2398 32.497 11.4864 31.9258 10.6333 31.5484C9.77333 31.1472 8.84787 30.905 7.90163 30.8334C6.68688 30.7442 5.47621 31.054 4.45368 31.7158C3.43115 32.3777 2.65268 33.3553 2.23663 34.5001C1.78205 35.591 1.60281 36.777 1.71471 37.9535C1.82661 39.1301 2.22621 40.261 2.8783 41.2467C3.11235 41.4782 3.37772 41.6757 3.66663 41.8334C3.12256 42.1942 2.61859 42.6122 2.1633 43.0801C1.82916 43.4545 1.53998 43.8667 1.30163 44.3084C1.05958 44.7415 0.857095 45.1956 0.696634 45.6651C0.334633 46.7399 0.100792 47.8537 -3.30471e-05 48.9834C-0.0275857 49.1361 0.00462286 49.2936 0.0899312 49.4233C0.17524 49.553 0.307121 49.6449 0.4583 49.6801C0.539448 49.6987 0.623631 49.6998 0.705253 49.6834C0.786876 49.667 0.864069 49.6334 0.931702 49.5848C0.999334 49.5363 1.05586 49.4739 1.09751 49.4018C1.13917 49.3297 1.165 49.2496 1.1733 49.1667C1.48755 48.2014 1.87996 47.2633 2.34663 46.3617L2.95163 45.2617C3.1533 44.9134 3.3733 44.5651 3.5933 44.2167C3.97296 43.6452 4.38299 43.0944 4.82163 42.5667C5.94552 43.1645 7.22216 43.4134 8.4883 43.2817C9.43696 43.1617 10.3493 42.8413 11.1647 42.3419C11.9802 41.8425 12.6802 41.1755 13.2183 40.3851Z" fill="#15B000"/>
<path fill-rule="evenodd" clip-rule="evenodd" d="M43.3949 45.6651C43.2344 45.1956 43.032 44.7415 42.7899 44.3084C42.5516 43.8667 42.2624 43.4545 41.9282 43.0801C41.473 42.6122 40.969 42.1942 40.4249 41.8334C40.6862 41.6462 40.9206 41.4242 41.1216 41.1734C41.7614 40.1963 42.1541 39.0784 42.2659 37.9159C42.3776 36.7534 42.2051 35.5811 41.7632 34.5001C41.3472 33.3553 40.5687 32.3777 39.5462 31.7158C38.5237 31.054 37.313 30.7442 36.0982 30.8334C35.1741 30.8941 34.268 31.1175 33.4216 31.4934C32.5684 31.8708 31.8151 32.442 31.2216 33.1617C31.1292 33.2638 31.0812 33.3985 31.088 33.536C31.0949 33.6735 31.1561 33.8027 31.2582 33.8951C31.3604 33.9874 31.495 34.0355 31.6325 34.0286C31.77 34.0217 31.8992 33.9605 31.9916 33.8584C32.5066 33.33 33.1329 32.9229 33.8249 32.6667C34.5438 32.4201 35.3021 32.3082 36.0616 32.3367C36.9063 32.3453 37.727 32.6189 38.4079 33.1188C39.0888 33.6188 39.5955 34.32 39.8566 35.1234C40.1812 35.9067 40.3203 36.7544 40.2631 37.6004C40.2058 38.4464 39.9538 39.2676 39.5266 40.0001C39.0452 40.5383 38.4543 40.9673 37.7934 41.2582C37.1325 41.5492 36.417 41.6953 35.6949 41.6867C34.9234 41.6495 34.1689 41.4469 33.4825 41.0926C32.7961 40.7384 32.1938 40.2407 31.7166 39.6334C31.6105 39.5319 31.4711 39.4725 31.3244 39.4662C31.1778 39.4599 31.0338 39.5072 30.9194 39.5992C30.805 39.6911 30.7279 39.8216 30.7026 39.9662C30.6772 40.1108 30.7053 40.2596 30.7816 40.3851C31.3258 41.1931 32.0386 41.8738 32.8709 42.3801C33.7033 42.8865 34.6354 43.2066 35.6032 43.3184C36.839 43.4318 38.0811 43.1834 39.1782 42.6034C39.6169 43.131 40.0269 43.6818 40.4066 44.2534C40.6266 44.6017 40.8466 44.9501 41.0482 45.2984L41.6532 46.3984C42.1181 47.2881 42.5105 48.2139 42.8266 49.1667C42.8397 49.2444 42.8684 49.3186 42.9109 49.385C42.9533 49.4513 43.0087 49.5085 43.0737 49.5529C43.1387 49.5974 43.2121 49.6284 43.2893 49.6439C43.3665 49.6594 43.4461 49.6593 43.5232 49.6434C43.6706 49.6124 43.8011 49.5276 43.8892 49.4056C43.9773 49.2835 44.0168 49.133 43.9999 48.9834C43.9288 47.8574 43.7258 46.7437 43.3949 45.6651Z" fill="#15B000"/>
<path fill-rule="evenodd" clip-rule="evenodd" d="M30.2683 41.9433C29.9813 41.418 29.637 40.9262 29.2417 40.4767C28.6253 39.7796 27.9231 39.1636 27.1517 38.6434C27.9811 37.8453 28.6196 36.8702 29.0196 35.7909C29.4196 34.7116 29.5707 33.5559 29.4617 32.41C29.4569 31.4759 29.2681 30.5518 28.9062 29.6906C28.5443 28.8294 28.0163 28.048 27.3523 27.3908C26.6884 26.7337 25.9015 26.2138 25.0366 25.8608C24.1717 25.5077 23.2458 25.3285 22.3117 25.3334C20.2844 25.2587 18.3095 25.987 16.8162 27.3602C15.323 28.7333 14.4319 30.6403 14.3367 32.6667C14.2882 33.9985 14.6441 35.3138 15.3575 36.4395C16.0708 37.5652 17.1083 38.4486 18.3333 38.9734C17.2948 39.5526 16.3127 40.2278 15.4 40.99C14.5772 41.6907 13.8662 42.513 13.2917 43.4284C12.7583 44.2046 12.3861 45.08 12.1972 46.0027C12.0083 46.9254 12.0064 47.8766 12.1917 48.8C12.2135 48.9556 12.2963 49.0961 12.4218 49.1907C12.5473 49.2852 12.7052 49.3261 12.8608 49.3042C13.0164 49.2823 13.1569 49.1995 13.2515 49.074C13.346 48.9485 13.3869 48.7906 13.365 48.635C13.3688 47.1257 13.9154 45.6681 14.905 44.5284C15.455 43.795 16.0967 43.08 16.7383 42.3834C17.765 41.3017 18.7917 40.275 19.745 39.45C20.4646 39.6345 21.2024 39.739 21.945 39.7617C22.0148 39.7667 22.085 39.7578 22.1514 39.7356C22.2178 39.7134 22.2792 39.6783 22.332 39.6323C22.3848 39.5863 22.428 39.5303 22.4591 39.4676C22.4903 39.4048 22.5087 39.3366 22.5133 39.2667C22.5184 39.1287 22.4696 38.9941 22.3772 38.8914C22.2848 38.7888 22.1561 38.7261 22.0183 38.7167C18.0217 38.35 16.1333 35.875 16.0783 33.2167C16.6202 33.5021 17.2111 33.6825 17.82 33.7484C18.1054 33.7936 18.3962 33.7936 18.6817 33.7484C18.9778 33.7057 19.2673 33.6256 19.5433 33.51C20.25 33.2652 20.8814 32.8421 21.3767 32.2817C21.3767 32.2817 21.3767 32.135 21.4683 32.08L22.165 32.4467C22.785 32.7369 23.4374 32.9523 24.1083 33.0884C25.3713 33.2912 26.6586 33.2912 27.9217 33.0884C28.0731 34.4399 27.7045 35.7984 26.8907 36.888C26.0769 37.9776 24.8789 38.7166 23.54 38.955C23.3826 38.9735 23.2387 39.0529 23.1393 39.1764C23.0399 39.2998 22.9928 39.4573 23.0083 39.615C23.0174 39.6923 23.0417 39.767 23.0799 39.8348C23.1181 39.9026 23.1694 39.9621 23.2308 40.0099C23.2923 40.0577 23.3626 40.0927 23.4377 40.1131C23.5128 40.1334 23.5912 40.1386 23.6683 40.1284C24.5432 40.0567 25.393 39.8005 26.1617 39.3767C26.7774 40.0498 27.3355 40.7734 27.83 41.54C28.105 41.9617 28.38 42.3834 28.6367 42.8234C28.8933 43.2634 29.1317 43.7217 29.37 44.1984C29.9302 45.3145 30.3844 46.4807 30.7267 47.6817C30.7618 47.8367 30.8564 47.9716 30.9902 48.0574C31.124 48.1432 31.2862 48.1728 31.4417 48.14C31.5177 48.1247 31.5899 48.0945 31.6542 48.0512C31.7185 48.0078 31.7735 47.9521 31.8162 47.8873C31.8588 47.8225 31.8881 47.7499 31.9025 47.6737C31.9169 47.5975 31.9161 47.5192 31.9 47.4433C31.7393 46.1555 31.438 44.889 31.0017 43.6667C30.8113 43.0707 30.5658 42.4938 30.2683 41.9433ZM19.69 31.6584H18.81L17.93 31.7867C17.331 31.9525 16.7168 32.0569 16.0967 32.0984C16.3998 30.7362 17.1965 29.5344 18.3333 28.725C18.8412 29.7292 19.5384 30.6256 20.3867 31.365C20.4167 31.3728 20.4483 31.3728 20.4783 31.365C20.2309 31.4999 19.9654 31.5987 19.69 31.6584ZM24.4567 31.2917C23.9287 31.1221 23.414 30.9137 22.9167 30.6684C22.4122 30.4334 21.9278 30.1574 21.4683 29.8434C20.7062 29.3253 20.0158 28.7088 19.415 28.01C20.3437 27.5936 21.3489 27.3751 22.3667 27.3684C23.6423 27.3249 24.8886 27.7566 25.8641 28.5797C26.8396 29.4027 27.4748 30.5586 27.6467 31.8234C26.5654 31.7789 25.4939 31.6003 24.4567 31.2917Z" fill="#15B000"/>
<path fill-rule="evenodd" clip-rule="evenodd" d="M22.8433 41.9435C22.8433 41.8025 22.7873 41.6673 22.6876 41.5676C22.5879 41.4679 22.4527 41.4119 22.3116 41.4119C22.1706 41.4119 22.0354 41.4679 21.9357 41.5676C21.836 41.6673 21.78 41.8025 21.78 41.9435C21.615 42.6035 21.4133 43.2085 21.3033 43.8685C21.2758 44.149 21.2758 44.4314 21.3033 44.7119C21.2851 44.9866 21.2851 45.2622 21.3033 45.5369C21.3033 46.1969 21.56 46.8019 21.6883 47.4619C21.6881 47.5397 21.704 47.6167 21.7348 47.6882C21.7656 47.7596 21.8108 47.824 21.8675 47.8773C21.9242 47.9306 21.9913 47.9716 22.0645 47.9979C22.1378 48.0242 22.2157 48.0352 22.2933 48.0302C22.3719 48.0302 22.4497 48.0145 22.5221 47.9839C22.5945 47.9532 22.66 47.9084 22.7148 47.8519C22.7695 47.7955 22.8123 47.7286 22.8407 47.6553C22.8691 47.582 22.8824 47.5038 22.88 47.4252C22.88 46.7835 23.1183 46.1785 23.1916 45.5919C23.2099 45.3233 23.2099 45.0538 23.1916 44.7852C23.2191 44.5109 23.2191 44.2345 23.1916 43.9602C23.1366 43.1902 22.9533 42.6035 22.8433 41.9435Z" fill="#15B000"/>
<path fill-rule="evenodd" clip-rule="evenodd" d="M25.245 17.5051L23.0266 16.1668C23.0266 16.1668 22.4766 15.7818 22.2566 15.6718C22.0567 15.5721 21.8304 15.5379 21.6099 15.5741C21.3894 15.6103 21.1859 15.7151 21.0283 15.8735C20.3316 16.6251 19.5983 17.3218 18.8833 18.0368C17.7833 19.1185 16.7016 20.1635 15.5466 21.1535C14.2509 22.2333 12.8985 23.243 11.495 24.1785C11.4372 24.2146 11.3871 24.2617 11.3475 24.3172C11.308 24.3727 11.2797 24.4354 11.2644 24.5018C11.2491 24.5682 11.247 24.6369 11.2582 24.7041C11.2695 24.7714 11.2939 24.8357 11.33 24.8935C11.3661 24.9512 11.4132 25.0013 11.4687 25.0409C11.5242 25.0805 11.5869 25.1087 11.6533 25.124C11.7197 25.1394 11.7885 25.1415 11.8557 25.1302C11.9229 25.119 11.9872 25.0946 12.045 25.0585C13.9672 24.0164 15.806 22.8273 17.545 21.5018C19.0693 20.3652 20.5262 19.1409 21.9083 17.8351L24.1816 19.2101L33.5316 25.3335C33.6659 25.4166 33.8273 25.444 33.9815 25.4097C34.1356 25.3755 34.2702 25.2823 34.3566 25.1501C34.4011 25.0855 34.4321 25.0126 34.4478 24.9357C34.4636 24.8589 34.4638 24.7797 34.4484 24.7028C34.433 24.6259 34.4024 24.5528 34.3583 24.4879C34.3142 24.4231 34.2575 24.3677 34.1916 24.3251C31.7533 22.6201 29.4983 20.6585 27.115 18.8251C26.4916 18.3851 25.8683 18.0001 25.245 17.5051Z" fill="#15B000"/>
<path fill-rule="evenodd" clip-rule="evenodd" d="M10.3399 19.3934C11.5866 18.5868 12.8333 17.7068 14.0066 16.8084C15.8399 15.4701 17.6733 14.0768 19.3966 12.7018L21.7983 10.8684L21.9999 10.6668C21.9999 10.6668 22.4949 10.9601 22.5866 11.0518C23.2283 11.6568 23.8333 12.2618 24.4199 12.8851C24.7133 13.1234 25.0249 13.3801 25.3366 13.6001C26.5712 14.4706 27.8569 15.2665 29.1866 15.9834C31.1299 17.1201 33.1283 18.1284 35.0533 19.2101C35.1194 19.25 35.1928 19.2764 35.2692 19.2879C35.3456 19.2993 35.4235 19.2956 35.4985 19.2769C35.5735 19.2581 35.644 19.2248 35.706 19.1787C35.768 19.1326 35.8203 19.0748 35.8599 19.0084C35.9368 18.8709 35.9588 18.7093 35.9213 18.5563C35.8839 18.4032 35.7899 18.27 35.6583 18.1834C33.8249 17.0101 31.8999 15.8734 30.0299 14.6268C28.8193 13.8273 27.6562 12.958 26.5466 12.0234L23.9616 9.54843C23.6532 9.2147 23.3224 8.90231 22.9716 8.61343C22.7496 8.45427 22.4911 8.35341 22.2199 8.3201C21.9864 8.30012 21.7517 8.3445 21.5416 8.44843C21.2148 8.67949 20.9025 8.93053 20.6066 9.2001L18.2049 11.2168C16.4999 12.7201 14.8866 14.3334 13.1816 15.7084C12.0449 16.6984 10.9083 17.5418 9.73494 18.5318C9.66714 18.5663 9.60755 18.6151 9.5602 18.6747C9.51286 18.7343 9.47886 18.8033 9.46051 18.8772C9.44216 18.9511 9.43988 19.028 9.45383 19.1028C9.46778 19.1777 9.49763 19.2486 9.54137 19.3109C9.5851 19.3732 9.6417 19.4254 9.70734 19.4639C9.77298 19.5024 9.84613 19.5264 9.92184 19.5342C9.99755 19.5421 10.0741 19.5335 10.1462 19.5093C10.2183 19.485 10.2844 19.4455 10.3399 19.3934Z" fill="#15B000"/>
</g>
<defs>
<clipPath id="clip0_119_116">
<rect width="44" height="44" fill="white" transform="translate(0 7)"/>
</clipPath>
</defs>
</svg>
