<svg width="50" height="52" viewBox="0 0 50 52" fill="none" xmlns="http://www.w3.org/2000/svg">
<g clip-path="url(#clip0_119_141)">
<path fill-rule="evenodd" clip-rule="evenodd" d="M44 47.9851C44.016 47.053 43.8196 46.1295 43.4258 45.2845C43.0319 44.4396 42.4508 43.6954 41.7266 43.1084C41.2439 42.8226 40.7174 42.6182 40.1683 42.5034C43.12 40.1934 42.735 34.6751 38.8116 33.8684C38.6538 33.8502 38.4949 33.8912 38.3656 33.9834C38.2362 34.0756 38.1457 34.2125 38.1115 34.3676C38.0773 34.5227 38.1018 34.685 38.1803 34.8231C38.2589 34.9612 38.3858 35.0652 38.5366 35.1151C41.5983 35.8484 41.2866 42.4484 35.6216 41.2751C32.0833 40.4867 32.7066 34.1984 37.455 34.5467C37.5907 34.5395 37.7194 34.4839 37.8176 34.39C37.9158 34.2961 37.9772 34.1701 37.9905 34.0348C38.0038 33.8996 37.9682 33.764 37.8901 33.6528C37.812 33.5415 37.6967 33.4619 37.565 33.4284C36.4324 33.2418 35.2699 33.4388 34.262 33.9881C33.2542 34.5374 32.4586 35.4076 32.0016 36.4605C31.5446 37.5135 31.4524 38.6889 31.7395 39.8003C32.0267 40.9116 32.6768 41.8953 33.5866 42.5951C32.7538 42.8772 32.0026 43.3589 31.3987 43.998C30.7947 44.6371 30.3563 45.4143 30.1216 46.2617C29.5121 45.0456 28.4736 44.0985 27.2066 43.6034C25.1166 42.7967 25.3733 43.3834 26.345 42.5584C30.14 39.4417 29.5716 31.9984 24.5116 30.9717C24.3538 30.9535 24.1949 30.9945 24.0656 31.0867C23.9362 31.1789 23.8457 31.3158 23.8115 31.4709C23.7773 31.6261 23.8018 31.7884 23.8803 31.9264C23.9589 32.0645 24.0858 32.1685 24.2366 32.2184C29.1866 33.4651 28.1416 43.6584 20.0016 41.6784C14.685 40.5784 15.455 30.8434 22.6416 31.4301C22.7139 31.4373 22.7868 31.4302 22.8563 31.4092C22.9258 31.3883 22.9905 31.3538 23.0467 31.3079C23.1028 31.2619 23.1494 31.2053 23.1837 31.1414C23.218 31.0774 23.2394 31.0073 23.2466 30.9351C23.2539 30.8628 23.2468 30.7899 23.2258 30.7204C23.2049 30.6509 23.1704 30.5862 23.1244 30.5301C23.0785 30.4739 23.0219 30.4273 22.9579 30.393C22.894 30.3587 22.8239 30.3373 22.7516 30.3301C21.1618 30.0873 19.5369 30.4005 18.1513 31.2169C16.7657 32.0333 15.7043 33.3028 15.1462 34.8112C14.5881 36.3195 14.5676 37.9741 15.0881 39.4958C15.6087 41.0175 16.6383 42.3129 18.0033 43.1634C16.9247 43.6177 15.9228 44.2361 15.0333 44.9967C13.2 46.5551 14.355 46.7384 13.3833 44.8317C12.8958 43.8275 12.0433 43.0471 11 42.6501C10.175 42.3934 10.3033 42.5034 10.4133 42.4117C11.4296 41.5246 12.0763 40.2886 12.2257 38.9479C12.375 37.6071 12.0162 36.2591 11.22 35.1701C10.4316 34.2717 8.46998 33.1901 8.21331 34.3267C8.18466 34.4889 8.21768 34.6559 8.30587 34.795C8.39407 34.9341 8.53107 35.0352 8.68998 35.0784C11 35.7201 11 39.4784 9.16665 40.8717C8.65513 41.1749 8.08575 41.3674 7.49524 41.4368C6.90473 41.5063 6.30621 41.4512 5.73831 41.2751C2.19998 40.4867 2.80498 34.1984 7.57165 34.5467C7.70737 34.5395 7.83602 34.4839 7.93427 34.39C8.03252 34.2961 8.09385 34.1701 8.10716 34.0348C8.12046 33.8996 8.08485 33.764 8.00679 33.6528C7.92872 33.5415 7.81337 33.4619 7.68165 33.4284C6.54906 33.2418 5.38659 33.4388 4.37871 33.9881C3.37082 34.5374 2.57526 35.4076 2.11827 36.4605C1.66129 37.5135 1.56905 38.6889 1.8562 39.8003C2.14336 40.9116 2.79345 41.8953 3.70331 42.5951C2.58309 43.0007 1.60307 43.7198 0.879978 44.6667C0.49354 45.1869 0.216362 45.78 0.0651282 46.4101C-0.0861055 47.0402 -0.108267 47.6945 -2.18675e-05 48.3334C0.0237866 48.4644 0.0927997 48.5828 0.194985 48.6681C0.297171 48.7534 0.426047 48.8001 0.559145 48.8001C0.692243 48.8001 0.821119 48.7534 0.923304 48.6681C1.02549 48.5828 1.0945 48.4644 1.11831 48.3334C1.46545 47.2346 2.09812 46.2476 2.95164 45.4734C3.56989 44.6855 4.31307 44.0043 5.15164 43.4567C6.24857 43.6984 7.38807 43.667 8.46998 43.3651C9.57274 43.8466 10.528 44.6121 11.2383 45.5834C11.8838 46.3494 12.4205 47.2007 12.8333 48.1134C12.4209 49.1228 12.2757 50.2215 12.4116 51.3034C12.4355 51.4344 12.5045 51.5528 12.6067 51.6381C12.7088 51.7234 12.8377 51.7701 12.9708 51.7701C13.1039 51.7701 13.2328 51.7234 13.335 51.6381C13.4372 51.5528 13.5062 51.4344 13.53 51.3034C13.6559 50.2186 14.0812 49.1903 14.7583 48.3334C15.7704 47.017 16.9264 45.8179 18.205 44.7584L19.415 43.9517C19.4976 43.9274 19.5731 43.8834 19.635 43.8234C21.0628 44.1681 22.5522 44.1681 23.98 43.8234C26.0433 44.7706 27.7513 46.3503 28.8566 48.3334C29.4299 49.2584 29.9031 50.2417 30.2683 51.2667C30.3192 51.4118 30.4205 51.5338 30.5537 51.6105C30.687 51.6872 30.8433 51.7136 30.9943 51.6847C31.1453 51.6558 31.281 51.5737 31.3765 51.4532C31.4721 51.3328 31.5212 51.182 31.515 51.0284C31.4133 50.2161 31.2478 49.413 31.02 48.6267C31.2583 48.2784 30.91 48.1684 31.79 46.7934C31.9183 46.6101 32.9083 45.5284 33.0366 45.3817C33.6457 44.5854 34.3904 43.9027 35.2366 43.3651C36.3159 43.5977 37.4354 43.5662 38.5 43.2734C39.5583 43.7974 40.4572 44.5949 41.1033 45.5834C41.7847 46.4145 42.3406 47.3411 42.7533 48.3334C42.7995 48.4987 42.9095 48.6389 43.059 48.7232C43.2086 48.8074 43.3855 48.8288 43.5508 48.7826C43.7161 48.7364 43.8563 48.6264 43.9406 48.4768C44.0248 48.3273 44.0462 48.1504 44 47.9851Z" fill="#DFC600"/>
<path fill-rule="evenodd" clip-rule="evenodd" d="M6.21504 11.8134C6.21504 10.4751 6.74671 10.4017 6.21504 9.98007C5.68337 9.5584 5.50004 9.7234 5.0967 10.9334C4.85837 11.8134 4.80337 13.2251 4.69337 13.7567C3.53051 19.5397 3.35077 25.4773 4.1617 31.3201C4.16772 31.4079 4.19099 31.4938 4.23018 31.5727C4.26937 31.6515 4.32371 31.7219 4.39011 31.7798C4.4565 31.8377 4.53365 31.8819 4.61714 31.91C4.70063 31.9381 4.78883 31.9494 4.8767 31.9434C4.96458 31.9374 5.05041 31.9141 5.12929 31.8749C5.20818 31.8357 5.27857 31.7814 5.33645 31.715C5.39433 31.6486 5.43857 31.5715 5.46664 31.488C5.49471 31.4045 5.50606 31.3163 5.50004 31.2284C5.18837 25.7467 6.1967 12.6201 6.21504 11.8134Z" fill="#DFC600"/>
<path fill-rule="evenodd" clip-rule="evenodd" d="M35.3834 16.4701C26.1031 15.9029 16.7969 15.9029 7.5167 16.4701C6.49004 16.6168 6.49004 17.6068 7.5167 17.6618C10.7434 17.6618 14.2267 18.1018 20.6067 18.1201C26.9867 18.1384 30.9834 17.8084 35.4934 17.6984C35.6232 17.6481 35.7331 17.557 35.8066 17.4387C35.8801 17.3205 35.9131 17.1815 35.9007 17.0429C35.8883 16.9042 35.8311 16.7733 35.7378 16.67C35.6444 16.5667 35.5201 16.4965 35.3834 16.4701Z" fill="#DFC600"/>
<path fill-rule="evenodd" clip-rule="evenodd" d="M9.16667 10.0717C14.52 10.0717 20.0383 9.76005 25.3917 10.0717C29.2967 10.2917 35.64 9.92505 37.895 11.7217C38.3717 12.0884 38.5367 15.7734 38.6833 16.9651C39.387 21.525 39.5776 26.1494 39.2517 30.7517C39.2346 30.8976 39.2763 31.0442 39.3674 31.1594C39.4585 31.2746 39.5916 31.3489 39.7375 31.3659C39.8834 31.3829 40.03 31.3413 40.1452 31.2502C40.2604 31.1591 40.3346 31.0259 40.3517 30.8801C40.916 26.2006 40.9775 21.4742 40.535 16.7817C40.3883 14.8384 40.6267 11.2817 39.215 10.0717C36.0617 7.65172 29.6633 8.34838 25.4283 8.18338C19.9283 8.03672 14.4283 8.56838 9.075 8.80672C8.92566 8.84097 8.7935 8.92753 8.70243 9.05075C8.61136 9.17396 8.56739 9.3257 8.57846 9.47852C8.58953 9.63134 8.65493 9.77515 8.76281 9.88395C8.87069 9.99275 9.01395 10.0594 9.16667 10.0717Z" fill="#DFC600"/>
<path fill-rule="evenodd" clip-rule="evenodd" d="M9.16661 13.9584C9.28184 14.0876 9.42307 14.191 9.58105 14.2618C9.73902 14.3325 9.91017 14.3691 10.0833 14.3691C10.2564 14.3691 10.4275 14.3325 10.5855 14.2618C10.7435 14.191 10.8847 14.0876 10.9999 13.9584C11.1397 13.6774 11.183 13.3582 11.1234 13.0501C11.0638 12.742 10.9044 12.462 10.6699 12.2534C9.49661 11.4834 8.04828 12.8034 9.16661 13.9584Z" fill="#DFC600"/>
<path fill-rule="evenodd" clip-rule="evenodd" d="M13.1449 13.5001C13.2617 13.6268 13.4034 13.7279 13.5612 13.797C13.719 13.8662 13.8893 13.9019 14.0616 13.9019C14.2339 13.9019 14.4042 13.8662 14.562 13.797C14.7198 13.7279 14.8615 13.6268 14.9783 13.5001C15.1534 13.2076 15.2183 12.8621 15.1611 12.5259C15.104 12.1897 14.9286 11.885 14.6666 11.6668C13.5483 11.0251 12.0999 12.3268 13.1449 13.5001Z" fill="#DFC600"/>
<path fill-rule="evenodd" clip-rule="evenodd" d="M17.5817 13.5001C17.6969 13.6293 17.8381 13.7327 17.9961 13.8035C18.1541 13.8742 18.3252 13.9108 18.4983 13.9108C18.6714 13.9108 18.8426 13.8742 19.0006 13.8035C19.1585 13.7327 19.2998 13.6293 19.415 13.5001C19.635 13.2801 19.7083 12.1251 19.1033 11.7951C17.985 11.0251 16.5 12.3268 17.5817 13.5001Z" fill="#DFC600"/>
</g>
<rect x="6" y="0.416748" width="44" height="44.6122" rx="15" fill="#DFC600" fill-opacity="0.16"/>
<defs>
<clipPath id="clip0_119_141">
<rect width="44" height="44" fill="white" transform="translate(0 8)"/>
</clipPath>
</defs>
</svg>
