<svg width="50" height="53" viewBox="0 0 50 53" fill="none" xmlns="http://www.w3.org/2000/svg">
<path d="M10.4811 38.4761V14.9126C10.4811 11.6399 11.7859 10.3308 15.0275 10.3308H17.1479C20.3895 10.3308 21.6943 11.6399 21.6943 14.9126V38.4761C21.6943 41.7488 20.3895 43.0579 17.1479 43.0579H15.0275C11.7859 43.0579 10.4811 41.7488 10.4811 38.4761Z" fill="white"/>
<path d="M10.481 28.3308H6.40347C5.56757 28.3308 4.87439 27.589 4.87439 26.6945C4.87439 25.7999 5.56757 25.0581 6.40347 25.0581H10.481V28.3308Z" fill="white"/>
<path d="M27.8105 25.0581H21.6942V28.3308H27.8105V25.0581Z" fill="white"/>
<path d="M44.1207 28.3308H39.0238V25.0581H44.1207C44.9566 25.0581 45.6498 25.7999 45.6498 26.6945C45.6498 27.589 44.9566 28.3308 44.1207 28.3308Z" fill="white"/>
<path opacity="0.4" d="M27.8105 34.1124V19.2761C27.8105 16.0034 29.1154 14.6943 32.357 14.6943H34.4773C37.719 14.6943 39.0238 16.0034 39.0238 19.2761V34.1124C39.0238 37.3851 37.719 38.6942 34.4773 38.6942H32.357C29.1154 38.6942 27.8105 37.3851 27.8105 34.1124Z" fill="white"/>
</svg>
