<svg width="50" height="51" viewBox="0 0 50 51" fill="none" xmlns="http://www.w3.org/2000/svg">
<rect x="6" width="44" height="44" rx="15" fill="#EC1414" fill-opacity="0.16"/>
<g filter="url(#filter0_b_119_110)">
<path d="M21.5498 27.1189C20.8185 26.4441 20.8185 25.9533 18.7747 25.9738C18.0145 26.0964 17.3052 26.4634 16.7373 27.028C16.1695 27.5926 15.769 28.3291 15.587 29.1432C15.4175 29.7553 15.4217 30.409 15.5991 31.0185C15.7764 31.6279 16.1187 32.1646 16.5808 32.5581C17.2274 32.9569 17.9658 33.144 18.7074 33.0969C19.4491 33.0497 20.1625 32.7703 20.7622 32.2922C21.4004 31.8963 21.8975 31.2773 22.1731 30.5352C22.4488 29.793 22.4868 28.9712 22.281 28.2026C22.1223 27.7815 21.8712 27.4094 21.5498 27.1189ZM19.6747 30.6155C19.3891 30.8478 19.0487 30.9866 18.6934 31.0156C18.338 31.0445 17.9825 30.9625 17.6684 30.7791C17.1996 30.4519 17.2746 29.7567 17.4621 29.1432C17.6496 28.5298 18.1559 27.5483 18.7934 27.4256C19.0906 27.3864 19.392 27.4253 19.6726 27.5391C19.9531 27.653 20.2046 27.8384 20.406 28.0799C20.5926 28.2565 20.7238 28.4925 20.781 28.7547C21.0435 29.5522 20.4247 30.2065 19.7497 30.6155H19.6747Z" fill="#EC1414"/>
<path d="M10.4495 37.8337C9.71817 37.1589 9.71817 36.6682 7.6556 36.6886C6.89884 36.815 6.19358 37.1837 5.62937 37.748C5.06516 38.3123 4.66745 39.0468 4.48673 39.8581C4.30041 40.4814 4.29593 41.1524 4.47391 41.7787C4.65189 42.4049 5.00358 42.9555 5.48052 43.3547C6.12713 43.7536 6.86549 43.9406 7.60713 43.8935C8.34876 43.8464 9.0622 43.567 9.66192 43.0889C10.3001 42.693 10.7972 42.0739 11.0728 41.3318C11.3484 40.5897 11.3865 39.7678 11.1807 38.9992C11.033 38.5486 10.7811 38.1471 10.4495 37.8337ZM8.57438 41.3303C8.28877 41.5627 7.94837 41.7014 7.59304 41.7304C7.23771 41.7594 6.88217 41.6773 6.56806 41.4939C6.09929 41.1667 6.17429 40.4715 6.3618 39.8581C6.54931 39.2446 7.03683 38.2631 7.6931 38.1404C7.98726 38.1046 8.28504 38.1452 8.56205 38.2589C8.83907 38.3726 9.08746 38.5562 9.28691 38.7948C9.47858 38.9703 9.61606 39.2059 9.68067 39.4695C9.94318 40.267 9.38066 40.9214 8.64938 41.3303H8.57438Z" fill="#EC1414"/>
<path d="M31.4502 26.853C30.6814 26.1374 30.6814 25.6875 28.6563 25.6875C27.8971 25.8153 27.1901 26.1871 26.6257 26.7553C26.0612 27.3235 25.6649 28.0623 25.4875 28.8774C25.3026 29.4977 25.2989 30.1653 25.4769 30.788C25.655 31.4107 26.0059 31.9577 26.4813 32.3536C27.1234 32.7679 27.8643 32.964 28.6092 32.9166C29.354 32.8692 30.069 32.5807 30.6627 32.0878C31.3009 31.6919 31.798 31.0728 32.0736 30.3307C32.3492 29.5886 32.3872 28.7667 32.1815 27.9981C32.034 27.5531 31.7818 27.1582 31.4502 26.853ZM29.5751 30.3497C29.2895 30.582 28.9491 30.7208 28.5938 30.7498C28.2385 30.7787 27.8829 30.6967 27.5688 30.5133C27.1 30.1861 27.175 29.4704 27.3625 28.857C27.5501 28.2435 28.0376 27.262 28.6938 27.1598C29.1235 27.0828 29.5643 27.1713 29.9407 27.4101C30.317 27.6489 30.6054 28.0231 30.7564 28.4684C30.9439 29.2864 30.3252 29.9203 29.6501 30.3497H29.5751Z" fill="#EC1414"/>
<path d="M20.3498 37.5679C19.6185 36.8931 19.6185 36.4023 17.5559 36.4023C16.7909 36.5138 16.0761 36.88 15.509 37.4509C14.9418 38.0218 14.5501 38.7696 14.3871 39.5922C14.1993 40.2123 14.1942 40.8809 14.3724 41.5042C14.5507 42.1276 14.9033 42.6746 15.3808 43.0684C16.0248 43.4799 16.7667 43.6724 17.5116 43.6214C18.2565 43.5705 18.9705 43.2782 19.5623 42.7822C20.2005 42.3863 20.6975 41.7672 20.9732 41.0251C21.2488 40.283 21.2868 39.4611 21.0811 38.6925C20.9307 38.2549 20.6787 37.8674 20.3498 37.5679ZM18.4747 41.0645C18.1891 41.2968 17.8487 41.4356 17.4934 41.4646C17.138 41.4936 16.7825 41.4115 16.4684 41.2281C15.9809 40.9009 16.0746 40.1852 16.2621 39.5718C16.4496 38.9584 16.9372 37.9768 17.5934 37.8746C17.8861 37.8362 18.1829 37.8736 18.4598 37.9837C18.7368 38.0939 18.986 38.2737 19.1872 38.5085C19.3789 38.684 19.5164 38.9196 19.581 39.1833C19.8248 40.0012 19.2247 40.7373 18.5497 41.0645H18.4747Z" fill="#EC1414"/>
<path d="M39.9443 27.0574C39.213 26.3622 39.1942 25.8918 37.1504 25.8918C36.3854 26.0033 35.6706 26.3695 35.1035 26.9404C34.5363 27.5113 34.1445 28.2591 33.9815 29.0818C33.7938 29.7018 33.7887 30.3704 33.9669 30.9937C34.1451 31.6171 34.4977 32.1641 34.9753 32.5579C35.6175 32.9723 36.3584 33.1683 37.1032 33.1209C37.8481 33.0736 38.5631 32.785 39.1567 32.2921C39.7949 31.8962 40.292 31.2772 40.5676 30.535C40.8433 29.7929 40.8813 28.9711 40.6755 28.2025C40.528 27.7575 40.2758 27.3626 39.9443 27.0574ZM38.0692 30.554C37.7836 30.7864 37.4432 30.9251 37.0879 30.9541C36.7325 30.9831 36.377 30.901 36.0629 30.7176C35.5754 30.3904 35.6691 29.6747 35.8566 29.0613C36.0441 28.4479 36.5316 27.4664 37.1879 27.3641C37.6058 27.3071 38.0292 27.4052 38.3898 27.6426C38.7503 27.88 39.0271 28.2429 39.1755 28.6728C39.3817 29.4907 38.8192 30.1246 38.1442 30.5131L38.0692 30.554Z" fill="#EC1414"/>
<path d="M27.2876 36.6476C26.5308 36.7739 25.8255 37.1427 25.2613 37.707C24.6971 38.2713 24.2994 39.0057 24.1187 39.817C23.9324 40.4404 23.9279 41.1114 24.1059 41.7376C24.2839 42.3639 24.6355 42.9145 25.1125 43.3137C25.7605 43.7076 26.498 43.8919 27.2387 43.8448C27.9793 43.7977 28.6923 43.5213 29.2939 43.0478C29.9321 42.652 30.4292 42.0329 30.7048 41.2908C30.9804 40.5486 31.0184 39.7268 30.8127 38.9582C30.5208 38.2192 30.0236 37.5987 29.3912 37.1841C28.7587 36.7696 28.023 36.5819 27.2876 36.6476ZM28.2813 41.2893C27.9957 41.5216 27.6553 41.6604 27.3 41.6894C26.9447 41.7184 26.5891 41.6363 26.275 41.4529C25.8063 41.1257 25.8813 40.4305 26.0688 39.7966C26.2563 39.1627 26.7625 38.2221 27.4001 38.0994C27.6927 38.061 27.9895 38.0984 28.2665 38.2085C28.5434 38.3187 28.7926 38.4985 28.9939 38.7333C29.1821 38.9121 29.3188 39.1464 29.3876 39.4081C29.5751 40.1647 28.9564 40.7372 28.2813 41.228V41.2893Z" fill="#EC1414"/>
<path d="M29.5564 11.8441C29.3446 13.3945 29.4995 14.9782 30.0064 16.445C30.3453 17.1641 30.9137 17.7233 31.6045 18.0171C32.2952 18.3108 33.0607 18.319 33.7565 18.0399C34.2299 17.9149 34.6669 17.6621 35.0273 17.3048C35.3877 16.9475 35.66 16.4971 35.8191 15.9951C36.1258 14.8477 36.2401 13.6493 36.1566 12.4576V11.7623V9.47215C36.1846 9.0194 36.122 8.56543 35.9731 8.14172C35.8241 7.71801 35.5924 7.3347 35.2941 7.01838C34.2945 6.27887 33.0753 5.97935 31.8815 6.18001C31.8011 6.17727 31.7211 6.19217 31.6461 6.22382C31.5711 6.25548 31.5027 6.30324 31.445 6.36428C31.3873 6.42531 31.3414 6.49838 31.3101 6.57913C31.2788 6.65988 31.2627 6.74667 31.2627 6.83435C31.2167 6.70826 31.1311 6.60409 31.0212 6.54042C30.9113 6.47675 30.7842 6.45772 30.6627 6.48673C30.5401 6.52416 30.4279 6.5942 30.3363 6.69056C30.2447 6.78692 30.1764 6.90659 30.1377 7.03883C30.0259 7.75451 29.9819 8.48083 30.0064 9.20633L29.7439 10.4537C29.6462 10.9107 29.5834 11.3758 29.5564 11.8441ZM31.1127 11.0058C31.1127 11.0058 31.4127 7.20241 31.4127 7.05928C31.46 7.1796 31.5383 7.28233 31.6382 7.35494C31.7381 7.42756 31.8552 7.46692 31.9752 7.46824C33.6628 7.46824 34.3753 7.81586 34.5628 8.53154C34.6237 9.83255 34.5419 11.1368 34.3191 12.4167C34.3242 13.2083 34.2423 13.9978 34.0753 14.7682C33.9441 15.259 33.7753 15.7497 33.3065 15.8724C33.1236 15.9628 32.9244 16.0075 32.7236 16.0033C32.5228 15.9991 32.3254 15.9461 32.1457 15.8481C31.9661 15.7502 31.8088 15.6098 31.6852 15.4371C31.5616 15.2644 31.4749 15.0638 31.4315 14.85C31.1334 13.5962 31.0257 12.2976 31.1127 11.0058Z" fill="#EC1414"/>
<path d="M16.0371 11.2104C16.0371 11.4149 16.1683 11.6194 16.8996 11.7012C17.9496 11.7012 18.3997 12.0693 19.8435 12.1511H22.2061H24.5499C25.8437 12.1511 26.6312 12.0284 27.9438 11.9261C28.5625 11.9261 29.0501 10.6174 28.225 10.3925C26.8 10.3312 25.8249 10.0654 24.3811 10.0654H20.631C19.4715 10.0612 18.313 10.1363 17.1621 10.2903C16.3746 10.3516 16.0183 10.9037 16.0371 11.2104Z" fill="#EC1414"/>
<path d="M43.1319 12.253C42.4991 11.5023 41.6661 10.9873 40.7505 10.7807C39.8828 10.5304 38.9838 10.4338 38.0879 10.4944C36.7566 10.6989 37.1129 11.7009 37.8067 11.7009C38.4349 11.694 39.0625 11.7488 39.6817 11.8645C40.6171 11.9373 41.4934 12.3896 42.1381 13.1322C42.575 14.088 42.8241 15.1327 42.8694 16.1995C43.0569 17.7944 43.2069 19.8597 43.3006 22.1294C40.5443 22.1294 35.0128 21.884 28.8063 21.7613H22.4499H16.0934C9.38062 21.8227 3.54916 22.0681 1.71159 22.1499C1.69969 19.0648 1.98883 15.987 2.57412 12.9687C2.75858 12.5994 3.02902 12.2897 3.35821 12.0707C3.6874 11.8517 4.0637 11.7312 4.44919 11.7213C5.22796 11.5147 6.03005 11.432 6.83053 11.4759C6.93652 11.4561 7.03395 11.3999 7.10869 11.3155C7.18344 11.2312 7.23161 11.1231 7.24624 11.0069C7.26086 10.8907 7.24117 10.7725 7.19003 10.6693C7.13889 10.5661 7.05894 10.4834 6.96178 10.4331C5.80021 10.1587 4.59823 10.1587 3.43666 10.4331C2.97655 10.5538 2.54798 10.788 2.1839 11.1177C1.81982 11.4474 1.52995 11.8638 1.33658 12.3348C0.605301 14.216 -0.144727 24.6036 0.0240296 33.8053C0.155284 40.4918 0.886562 46.4831 2.23661 48.2825C3.2304 49.5912 5.81799 50.3273 9.08061 50.6136C14.1621 50.9817 20.9123 50.3682 24.3999 50.3682C28.7798 50.5195 33.1641 50.3624 37.5254 49.8979C39.4915 49.7117 41.4038 49.1 43.1506 48.0985C43.6594 47.6281 43.9983 46.9759 44.1069 46.2582C44.7745 42.0591 45.0759 37.8005 45.0069 33.5395C45.0069 24.3787 44.3132 13.7661 43.1319 12.253ZM42.6631 43.8657C42.5586 44.7631 42.3507 45.6425 42.0443 46.4831C39.946 47.4409 37.6997 47.9544 35.4253 47.9963C31.0377 48.3848 26.2 48.2007 24.3999 48.2007C20.9498 48.2007 14.2558 48.8346 9.21187 48.5075C6.62427 48.3439 4.48669 48.0576 3.69917 47.0352C2.42412 45.4198 1.88035 39.9193 1.71159 33.8462C1.58694 30.3511 1.57443 26.8523 1.67409 23.3563C3.54916 23.3563 9.26812 23.6835 16.0934 23.8266H22.4499H28.8063C35.0503 23.7039 40.6005 23.5199 43.3381 23.4381C43.3381 25.4829 43.4319 27.7935 43.3381 30.0428C43.3757 34.6613 43.1503 39.2778 42.6631 43.8657Z" fill="#EC1414"/>
<path d="M8.40559 11.7829C8.26128 13.4203 8.40771 15.0726 8.83686 16.6495C9.17575 17.3687 9.74413 17.9279 10.4349 18.2217C11.1257 18.5154 11.8911 18.5236 12.587 18.2445C13.0645 18.1243 13.5062 17.8735 13.8703 17.5158C14.2344 17.158 14.509 16.7051 14.6683 16.1997C14.9872 15.0409 15.1018 13.8266 15.0058 12.6213V10.4538V9.63585C15.0313 9.18337 14.9676 8.73018 14.8188 8.30688C14.67 7.88358 14.4396 7.50002 14.1433 7.18208C13.1471 6.43352 11.927 6.12647 10.7307 6.32326C10.5666 6.32326 10.4092 6.39435 10.2931 6.5209C10.1771 6.64744 10.1119 6.81908 10.1119 6.99804C10.0659 6.87195 9.98031 6.76779 9.87041 6.70412C9.76051 6.64045 9.63345 6.62142 9.51188 6.65043C9.3893 6.68785 9.27715 6.75789 9.18552 6.85426C9.09388 6.95062 9.02562 7.07029 8.98686 7.20252C8.84609 7.87411 8.76446 8.55882 8.74311 9.24733L8.53685 10.3311V10.8627L8.40559 11.7829ZM9.94315 11.1899C9.94315 11.1899 10.2432 7.40701 10.2432 7.24342C10.2854 7.36916 10.3619 7.47776 10.4625 7.55455C10.5631 7.63134 10.6829 7.67262 10.8057 7.67283C12.4932 7.67283 13.2058 8.02045 13.3933 8.73613C13.448 10.038 13.3599 11.3423 13.1308 12.6213C13.1324 13.4127 13.0506 14.2017 12.887 14.9728C12.7745 15.4431 12.6057 15.9339 12.137 16.0566C11.954 16.1469 11.7549 16.1916 11.5541 16.1874C11.3533 16.1832 11.1558 16.1302 10.9762 16.0323C10.7965 15.9343 10.6392 15.7939 10.5156 15.6212C10.3921 15.4486 10.3054 15.248 10.2619 15.0341C9.96047 13.781 9.85274 12.4817 9.94315 11.1899Z" fill="#EC1414"/>
</g>
<defs>
<filter id="filter0_b_119_110" x="-4" y="2.11914" width="53.0165" height="52.6121" filterUnits="userSpaceOnUse" color-interpolation-filters="sRGB">
<feFlood flood-opacity="0" result="BackgroundImageFix"/>
<feGaussianBlur in="BackgroundImageFix" stdDeviation="2"/>
<feComposite in2="SourceAlpha" operator="in" result="effect1_backgroundBlur_119_110"/>
<feBlend mode="normal" in="SourceGraphic" in2="effect1_backgroundBlur_119_110" result="shape"/>
</filter>
</defs>
</svg>
